<?xml version="1.0" encoding="utf-8"?>
<!-- Generator: Adobe Illustrator 21.1.0, SVG Export Plug-In . SVG Version: 6.00 Build 0)  -->
<svg version="1.1" id="Layer_1" xmlns="http://www.w3.org/2000/svg" xmlns:xlink="http://www.w3.org/1999/xlink" x="0px" y="0px"
	 viewBox="0 0 612 792" style="enable-background:new 0 0 612 792;" xml:space="preserve">
<style type="text/css">
	.st0{fill:#4B9CD3;}
	.st1{fill:none;stroke:#4B9CD3;stroke-width:0.8;stroke-miterlimit:10;}
</style>
<g>
	<path class="st0" d="M208.7,383.7h0.1C208.8,383.7,208.8,383.7,208.7,383.7C208.8,383.7,208.7,383.7,208.7,383.7z"/>
	<path class="st0" d="M208.5,384.3C208.5,384.3,208.5,384.3,208.5,384.3l0-0.5l0,0l0,0c0,0,0,0,0,0V384.3z"/>
	<rect x="208.5" y="383.8" class="st0" width="0" height="0.5"/>
	<path class="st0" d="M204.2,383.5C204.2,383.5,204.2,383.5,204.2,383.5L204.2,383.5C204.2,383.5,204.2,383.5,204.2,383.5z"/>
	<circle class="st0" cx="208.5" cy="384.3" r="0"/>
</g>
<g>
	<path class="st0" d="M200,380.2c0.1,0.1,0.2,0.1,0.2,0.1c8.5-0.3,13.3,2.9,13.7,4.2l3.4-0.1l1.1-2.3c0.1-0.2,0-0.5,0-0.5
		c-1-1.1-9.5-3.6-19.8-3.6c-11,0-17.9,2.2-19.4,3.2c0,0-0.4,0.2-0.4,0.5c0,0.1,0.2,0.6,0.2,0.6l0.3,0.6c0.1,0.2,0.2,0.2,0.4,0
		c0,0,0.2-0.1,0.2-0.2c0-0.1-0.1-0.4-0.1-0.4c-0.2-0.4,0.1-0.5,0.1-0.5l0.6-0.3c0.3-0.1,0.3,0.1,0.4,0.3c0,0,0.1,0.3,0.2,0.4
		c0.2,0.1,0.7-0.2,2.1-0.6c0.1,0,0.2,0,0.4-0.1c0.1-0.1,0-0.6,0-0.6c-0.1-0.2-0.2-0.5,0.4-0.6l0.9-0.2c0.4-0.1,0.5,0.1,0.5,0.4
		c0,0,0,0.4,0.1,0.5c0.1,0.2,0.3-0.1,3.2-0.4c0,0,0.4,0,0.5-0.2c0.1-0.2,0-0.5,0-0.5c0-0.3-0.2-0.6,0.5-0.6l1.2-0.1
		c0.9-0.2,0.8,0.2,0.8,0.5c0,0,0,0.4,0.1,0.4c0.1,0.1,0.4,0.1,0.4,0.1c1.6-0.2,2.5-0.2,4.2-0.2c0,0,0.2,0,0.3-0.1
		c0.1-0.1,0.1-0.2,0.1-0.2c0-0.2,0-0.5,0.1-0.6c0.1-0.1,0.4-0.1,0.6-0.1l1.4,0c0.2,0,0.7-0.1,0.8,0.1c0.1,0.1,0.1,0.7,0.1,0.7
		S200,380.1,200,380.2z"/>
	<path class="st0" d="M198.6,366.5c-8.3,0-13.3,2.7-16.6,5.8c0,0-0.1,0.1-0.1,0.1c-0.1,0.2-0.1,0.4,0.3,0.3c7.1-3,14.8-1.1,17.3,1.7
		c0.1,0.1,0,0.2-0.1,0.2c-2.5,0-4.6-0.1-9.2,0.5c-2.5,0.4-4.7,0.7-6.6,1.2c-3.1,0.8-5.3,1.8-6.5,2.6c-0.4,0.2-0.5,0.4-0.6,0.6
		c-0.1,0.4-0.1,0.4-0.2,0.7c-0.2,0.5-0.2,0.8-0.3,1c-0.1,0.3,0.3,0.2,0.5,0c0.4-0.4,1.4-1.3,2.9-2c1.5-0.7,4-1.5,6.8-2
		c3.6-0.7,8.1-1.1,12.1-1.1c4.7,0,8.9,0.5,12.4,1.2c3.6,0.7,6.4,1.7,8.2,2.6c0.9,0.4,1.3,0.8,1.9,1.3c0.5,0.5,0.5,0.1,0.5-0.1
		c0,0-0.1-0.6-0.8-2C218.1,374.8,211.9,366.5,198.6,366.5"/>
	<g>
		<path class="st0" d="M199.1,427.7c-16.4,0-24.6-3.8-24.6-6h0l0-2.1c0,0,0-0.1,0.1-0.1c0,0,0.1,0,0.1,0c7.1,5.4,23.9,6.1,31.2,3.7
			c0.2-0.1,0.3-0.2,0.3-0.2c0,0-0.1-0.1-0.1-0.1c-0.2-0.1-0.3-0.1-0.5,0c-0.1,0-0.2,0-0.3,0c-11.5,1.2-23.6-1.1-27.7-4
			c0,0-0.1-0.1-0.1-0.1l0-2.5c0-0.1,0-0.1,0.1-0.1s0.1,0,0.1,0c0.5,0.5,2.6,1.5,6.6,2.3c3,0.6,7.9,1.4,14.4,1.4c9.8,0,18-1.8,20.2-3
			c0.5-0.3,0.8-0.5,0.8-0.6c0-0.1,0.1-0.1,0.1-0.1c0.1,0,0.1,0.1,0.1,0.1l0.1,1.5c2.5,0,3.4,0.1,3.5,0.7c0,0,0,0.1,0,0.2
			c0,0,0,0,0,0l0.1,2.9C223.7,423.8,215,427.7,199.1,427.7z"/>
	</g>
	<path class="st0" d="M208.8,382.5l-4.5,0c-0.2,0-0.3,0.1-0.3,0.3v0.5c0,0.2,0.1,0.3,0.3,0.3h1.4c0.1,0,0.2,0.1,0.2,0.1
		c0.1,0.1-0.2,0.3-0.3,0.3l-0.7,0.4c-0.1,0.1-0.2,0.2-0.2,0.4l0,32.3c0.1,0.6,1,0.6,2,0.6c0.8,0,1.8,0,1.9-0.6c0,0,0-30.8,0-33.4
		c0-0.1,0.1-0.2,0.1-0.2c0,0,0.2,0,0.2,0c0.2,0,0.3-0.1,0.3-0.3v-0.5C209.1,382.6,209,382.5,208.8,382.5z"/>
	<g>
		<path class="st0" d="M198.8,416c-1.4,0-2.8,0-2.9-0.1c-0.2-0.1-0.2-0.9-0.1-1.5c0,0,0-0.1,0.1-0.1l0.5-0.2v-6c0,0,0-0.1,0-0.3
			c0.1-0.2,0.2-0.3,0.3-0.3c0.4-0.3,1.3-0.9,1.8-1.2c0.1,0,0.1-0.1,0.1-0.1c0,0,0-0.1,0-0.1c0-0.1-0.2-0.1-0.3-0.1
			c-0.1,0-0.1,0-0.1,0c-0.1,0-0.2,0-1.4,0c0,0-0.2,0-0.4-0.1c-0.1,0-0.2-0.1-0.2-0.1c0,0,0,0,0,0l-0.4-0.9h-0.3c0,0-0.1,0-0.1,0
			s0-0.1,0-0.1l0-0.2c0-0.1,0.1-0.1,0.1-0.1h6.3c0.1,0,0.1,0.1,0.1,0.1l0,0.2c0,0,0,0.1,0,0.1s-0.1,0-0.1,0h-0.2l-0.6,1.2v8l0.5,0.2
			c0,0,0.1,0.1,0.1,0.1c0.1,0.9,0.1,1.4-0.1,1.5C201.4,415.9,200.1,416,198.8,416z"/>
	</g>
	<path class="st0" d="M217.6,384.3l-4.5,0c-0.2,0-0.3,0.1-0.3,0.3v0.5c0,0.2,0.1,0.3,0.3,0.3h1.4c0.1,0,0.2,0.1,0.2,0.1
		c0.1,0.1-0.2,0.3-0.3,0.3l-0.7,0.4c-0.1,0.1-0.2,0.2-0.2,0.4l0,29.2c0.1,0.6,1,0.6,2,0.6c0.8,0,1.8,0,1.9-0.6c0,0,0-27.6,0-30.3
		c0-0.1,0.1-0.2,0.1-0.2c0,0,0.2,0,0.2,0c0.2,0,0.3-0.1,0.3-0.3v-0.5C217.9,384.4,217.8,384.3,217.6,384.3z"/>
	<path class="st0" d="M192.9,382.5l-4.5,0c-0.2,0-0.3,0.1-0.3,0.3v0.5c0,0.2,0.1,0.3,0.3,0.3h1.4c0.1,0,0.2,0.1,0.2,0.1
		c0.1,0.1-0.2,0.3-0.3,0.3l-0.7,0.4c-0.1,0.1-0.2,0.2-0.2,0.4l0,32.3c0.1,0.6,1,0.6,2,0.6c0.8,0,1.8,0,1.9-0.6c0,0,0-30.8,0-33.4
		c0-0.1,0.1-0.2,0.1-0.2c0,0,0.2,0,0.2,0c0.2,0,0.3-0.1,0.3-0.3v-0.5C193.2,382.6,193.1,382.5,192.9,382.5z"/>
	<path class="st0" d="M184.1,384.4l-4.5,0c-0.2,0-0.3,0.1-0.3,0.3v0.5c0,0.2,0.1,0.3,0.3,0.3l1.4,0c0.1,0,0.2,0.1,0.2,0.1
		c0.1,0.1-0.2,0.3-0.3,0.3l-0.7,0.4c-0.1,0.1-0.2,0.2-0.2,0.4l0,29.2c0.1,0.6,1,0.6,2,0.6c0.8,0,1.8-0.1,1.9-0.6c0,0,0-27.6,0-30.3
		c0-0.1,0.1-0.2,0.1-0.2c0,0,0.2,0,0.2,0c0.2,0,0.3-0.1,0.3-0.3v-0.5C184.4,384.5,184.3,384.4,184.1,384.4z"/>
</g>
<line class="st1" x1="242.5" y1="359.8" x2="242.5" y2="432.2"/>
<g>
	<path class="st0" d="M272.9,375.8h-0.6c-0.2-1.3-0.4-1.6-1.3-1.6h-1.5v5.4c0,1.1,0.2,1.3,1.4,1.3v0.6h-5.1v-0.6
		c1.3,0,1.4-0.2,1.4-1.3v-5.4h-1.5c-0.6,0-1,0.2-1.2,1.6h-0.6l0.2-2.6h0.6c0.1,0.1,0.1,0.1,0.2,0.2c0.1,0,0.2,0,0.4,0h5.9
		c0.6,0,0.7,0,0.8-0.2h0.6L272.9,375.8z"/>
	<path class="st0" d="M283.2,376.9v-1.6c0-1-0.2-1.3-1.1-1.3v-0.6h4.4v0.6c-1,0-1.1,0.3-1.1,1.1v4.5c0,0.9,0.1,1.3,1.1,1.3v0.6h-4.4
		v-0.6c0.8,0,1.1-0.2,1.1-1.3v-1.9h-3.9v1.9c0,0.8,0.1,1.2,1.1,1.2v0.6h-4.5v-0.6c0.9,0,1.1-0.2,1.1-1.3v-4.4c0-1-0.3-1.3-1.1-1.3
		v-0.6h4.5v0.6c-0.9,0.1-1.1,0.2-1.1,1.2v1.7H283.2z"/>
</g>
<g>
	<path class="st0" d="M297.4,373.4l0.1,1.9h-0.6c-0.1-0.9-0.3-1.1-1-1.1h-2.6v2.8h1.7c0.9,0,1.2-0.2,1.2-1h0.6v2.7h-0.6
		c0-0.7-0.2-0.9-1.2-0.9h-1.7v2.1c0,0.7,0.1,0.7,0.8,0.7h1.5c1.1,0,1.4-0.5,1.6-1.4h0.6l-0.2,2.2h-7.9v-0.6c1.2,0,1.4-0.3,1.4-1.2
		v-4.5c0-1.1-0.4-1.2-1.3-1.2v-0.6H297.4z"/>
	<path class="st0" d="M316.1,373.4v0.6c-1.1,0-1.3,0.2-1.3,1.2v2.9c0,2.6-1.6,3.6-3.8,3.6c-2.4,0-3.9-1.1-3.9-3v-3.4
		c0-0.9-0.2-1.3-1.1-1.3v-0.6h4.4v0.6c-0.9,0-1.2,0.3-1.2,1.1v3.5c0,1.2,0.7,2,2.3,2c1.7,0,2.4-0.9,2.4-2.6v-2.7
		c0-1-0.2-1.3-1.3-1.3v-0.6H316.1z"/>
</g>
<g>
	<path class="st0" d="M329.2,373.4v0.6c-0.9,0-1.2,0.3-1.2,1.2v6.4h-1l-5.9-6.2v4.3c0,0.9,0.1,1.2,1.2,1.2v0.6H319v-0.6
		c0.9,0,1.2-0.2,1.2-1.3v-5.2c-0.2-0.2-0.5-0.3-1.1-0.3v-0.6h3.1l4.9,5.3v-3.5c0-0.8-0.1-1.2-1.2-1.2v-0.6H329.2z"/>
	<path class="st0" d="M332.3,381.5v-0.6c0.9,0,1.1-0.3,1.1-1.2v-4.5c0-0.9-0.2-1.3-1.1-1.3v-0.6h4.5v0.6c-1,0-1.2,0.3-1.2,1.3v4.4
		c0,0.8,0.1,1.2,1.2,1.2v0.6H332.3z"/>
</g>
<g>
	<path class="st0" d="M349,374c-0.9,0-1.2,0.2-1.8,1.5l-2.8,6.2h-1l-2.7-6.1c-0.7-1.5-0.8-1.6-1.7-1.6v-0.6h4.9v0.6
		c-1,0-1.3,0.2-1.3,0.5c0,0.2,0.1,0.4,0.2,0.8l1.7,3.8l1.5-3.3c0.4-0.8,0.5-1.1,0.5-1.3c0-0.3-0.3-0.5-1.1-0.5v-0.6h3.6V374z"/>
	<path class="st0" d="M358.2,373.4l0.1,1.9h-0.6c-0.1-0.9-0.3-1.1-1-1.1h-2.6v2.8h1.7c0.9,0,1.2-0.2,1.2-1h0.6v2.7h-0.6
		c0-0.7-0.2-0.9-1.2-0.9h-1.7v2.1c0,0.7,0.1,0.7,0.8,0.7h1.5c1.1,0,1.4-0.5,1.6-1.4h0.6l-0.2,2.2h-7.9v-0.6c1.2,0,1.4-0.3,1.4-1.2
		v-4.5c0-1.1-0.4-1.2-1.3-1.2v-0.6H358.2z"/>
</g>
<path class="st0" d="M372.7,381.6h-1.6c-1.2,0-1.9-0.2-2.5-0.8c-0.8-0.8-1.6-2.2-2.2-2.8h-0.7v1.7c0,1,0.4,1.1,1.4,1.1v0.6h-4.9
	v-0.6c1.1,0,1.4-0.2,1.4-1.1v-4.5c0-1-0.2-1.2-1.4-1.2v-0.6c0.8-0.1,1.3-0.1,2.4-0.1c0.8,0,1.6-0.1,2.1-0.1c2.1,0,4,0.4,4,2.4
	c0,1-0.6,1.7-1.9,2.1c0.8,0.7,1.3,1.8,2.1,2.6c0.6,0.6,1.1,0.7,1.8,0.7V381.6z M365.7,377.4c1.9,0,2.6-0.6,2.6-1.9
	c0-1-0.7-1.7-1.9-1.7h-0.6V377.4z"/>
<g>
	<path class="st0" d="M375,379.1c0.4,1.2,1.2,2,2.3,2c0.8,0,1.3-0.5,1.3-1.2c0-1.7-4.1-1.9-4.1-4.4c0-0.9,0.6-2.3,2.8-2.3
		c1,0,1.6,0.3,2,0.3c0.1,0,0.2,0,0.3-0.2h0.4l0.2,2.3h-0.6c-0.4-1.1-1.3-1.7-2.2-1.7c-0.7,0-1.1,0.3-1.1,0.8c0,1.4,4.3,1.7,4.3,4.5
		c0,1.5-1.2,2.5-3,2.5c-0.9,0-1.9-0.3-2.1-0.3c-0.2,0-0.3,0.1-0.3,0.2h-0.4l-0.4-2.6H375z"/>
	<path class="st0" d="M383.9,381.5v-0.6c0.9,0,1.1-0.3,1.1-1.2v-4.5c0-0.9-0.2-1.3-1.1-1.3v-0.6h4.5v0.6c-1,0-1.2,0.3-1.2,1.3v4.4
		c0,0.8,0.1,1.2,1.2,1.2v0.6H383.9z"/>
	<path class="st0" d="M400,375.8h-0.6c-0.2-1.3-0.4-1.6-1.3-1.6h-1.5v5.4c0,1.1,0.2,1.3,1.4,1.3v0.6H393v-0.6c1.3,0,1.4-0.2,1.4-1.3
		v-5.4h-1.5c-0.6,0-1,0.2-1.2,1.6h-0.6l0.2-2.6h0.6c0.1,0.1,0.1,0.1,0.2,0.2c0.1,0,0.2,0,0.4,0h5.9c0.6,0,0.7,0,0.8-0.2h0.6
		L400,375.8z"/>
</g>
<path class="st0" d="M411.8,374c-0.9,0-1.1,0.2-1.8,1.3l-1.9,2.9v1.4c0,0.9,0.1,1.2,1.3,1.2v0.6h-4.8v-0.6c1.1,0,1.3-0.3,1.3-1.2
	v-1.3l-2.4-3.2c-0.6-0.8-0.9-1-1.6-1v-0.6h4.7v0.6c-0.6,0-0.9,0.1-0.9,0.3c0,0.1,0.1,0.3,0.2,0.4l1.8,2.5l1.3-2.1
	c0.2-0.4,0.3-0.6,0.3-0.8c0-0.3-0.2-0.4-0.9-0.4v-0.6h3.3V374z"/>
<g>
	<path class="st0" d="M268.2,394.5c1,0,1.6,0.9,1.6,2.2c0,2.6-2.4,4.2-4,4.2c-1,0-1.6-0.9-1.6-2.1
		C264.2,396.6,266.2,394.5,268.2,394.5z M266.7,400.3c0.6,0,1.4-1.5,1.4-3.3c0-1-0.4-1.8-0.8-1.8c-0.6,0-1.4,1.5-1.4,3.3
		C265.9,399.5,266.3,400.3,266.7,400.3z"/>
	<path class="st0" d="M273.4,400.2c-0.2,1.1-0.5,2.1-1.5,3c-0.6,0.6-1.3,1-2.3,1c-0.9,0-1.5-0.4-1.5-0.9c0-0.4,0.4-0.7,0.8-0.7
		c0.9,0,0.9,1.1,1.6,1.1c0.5,0,0.9-0.6,1-1.6l1.1-6.7h-1.1l0.1-0.4c0.4,0,0.9-0.1,1.2-0.3c0.3-2.1,1.5-3.9,3.6-3.9
		c0.9,0,1.4,0.3,1.4,0.8c0,0.4-0.4,0.8-0.8,0.8c-0.8,0-1.1-1-1.6-1c-0.4,0-0.5,0.5-0.7,1.8l-0.2,1.5h1.1l-0.1,0.7h-1.1L273.4,400.2z
		"/>
</g>
<g>
	<path class="st0" d="M293.5,392.6v0.6c-0.9,0-1.2,0.3-1.2,1.2v6.4h-1l-5.9-6.2v4.3c0,0.9,0.1,1.2,1.2,1.2v0.6h-3.3v-0.6
		c0.9,0,1.2-0.2,1.2-1.3v-5.2c-0.2-0.2-0.5-0.3-1.1-0.3v-0.6h3.1l4.9,5.3v-3.5c0-0.8-0.1-1.2-1.2-1.2v-0.6H293.5z"/>
	<path class="st0" d="M300.6,400.9c-3.7,0-4.8-2.4-4.8-4.2c0-2.2,1.6-4.3,5.1-4.3c3.6,0,4.7,2.4,4.7,4.2
		C305.6,398.3,304.5,400.9,300.6,400.9z M300.5,393.1c-1.2,0-2.4,0.8-2.4,3.1c0,2.5,1.2,4.2,2.9,4.2c1.3,0,2.3-1,2.3-3.1
		C303.3,394.8,302.2,393.1,300.5,393.1z"/>
</g>
<g>
	<path class="st0" d="M318.5,400.9h-1.6c-1.2,0-1.9-0.2-2.5-0.8c-0.8-0.8-1.6-2.2-2.2-2.8h-0.7v1.7c0,1,0.4,1.1,1.4,1.1v0.6H308
		v-0.6c1.1,0,1.4-0.2,1.4-1.1v-4.5c0-1-0.2-1.2-1.4-1.2v-0.6c0.8,0,1.3-0.1,2.4-0.1c0.8,0,1.6-0.1,2.1-0.1c2.1,0,4,0.4,4,2.4
		c0,1-0.6,1.7-1.9,2.1c0.8,0.7,1.3,1.8,2.1,2.6c0.6,0.6,1.1,0.7,1.8,0.7V400.9z M311.5,396.7c1.9,0,2.6-0.6,2.6-1.9
		c0-1-0.7-1.7-1.9-1.7h-0.6V396.7z"/>
	<path class="st0" d="M328.8,395h-0.6c-0.2-1.3-0.4-1.6-1.3-1.6h-1.5v5.4c0,1.1,0.2,1.3,1.4,1.3v0.6h-5v-0.6c1.3,0,1.4-0.2,1.4-1.3
		v-5.4h-1.5c-0.6,0-1,0.2-1.2,1.6h-0.6l0.2-2.6h0.6c0.1,0.1,0.1,0.1,0.2,0.2c0.1,0,0.2,0,0.4,0h5.9c0.6,0,0.7,0,0.8-0.2h0.6
		L328.8,395z"/>
</g>
<g>
	<path class="st0" d="M338.9,396.2v-1.6c0-1-0.2-1.3-1.1-1.3v-0.6h4.4v0.6c-0.9,0-1.1,0.3-1.1,1.1v4.5c0,0.9,0.1,1.3,1.1,1.3v0.6
		h-4.4v-0.6c0.8,0,1.1-0.2,1.1-1.3V397H335v1.9c0,0.8,0.1,1.2,1.1,1.2v0.6h-4.5v-0.6c0.9,0,1.1-0.2,1.1-1.3v-4.4
		c0-1-0.3-1.2-1.1-1.2v-0.6h4.5v0.6c-0.9,0.1-1.1,0.2-1.1,1.2v1.7H338.9z"/>
	<path class="st0" d="M359.5,398.2c-0.1,0.7-0.4,1.7-0.8,2.6l0,0.1c-0.1,0-0.2-0.1-0.4-0.1c-0.1,0-0.3,0-0.4,0c-0.4,0-0.7,0-1.1,0.1
		c-0.4,0-0.8,0.1-1.3,0.1c-1.7,0-2.9-0.6-3.7-1.4c-0.7-0.8-1.1-1.8-1.1-2.7c0-1.3,0.5-2.4,1.4-3.2c0.9-0.8,2.2-1.2,3.7-1.2
		c1.4,0,2.2,0.4,2.5,0.4c0.1,0,0.2-0.1,0.2-0.2h0.5l0.1,2.7h-0.6c-0.1-0.7-0.5-1.2-0.9-1.6s-1-0.6-1.7-0.6c-1.7,0-2.9,1.4-2.9,3.4
		c0,2.1,1.2,3.6,3.1,3.6c1.2,0,2.2-0.7,2.8-2H359.5z"/>
</g>
<g>
	<path class="st0" d="M371,400.7h-4.7v-0.6c0.9,0,1.2-0.1,1.2-0.4c0-0.2-0.1-0.5-0.3-1l-0.3-0.8h-2.9l-0.2,0.7
		c-0.2,0.5-0.3,0.9-0.3,1c0,0.4,0.4,0.5,1.1,0.5v0.6h-3.3v-0.6c1,0,1.1-0.2,1.5-1.6l2-5.8l-0.1-0.3h2.3l2.4,6.2
		c0.5,1.2,0.8,1.5,1.5,1.5V400.7z M365.4,394.1l-1.1,3.1h2.3L365.4,394.1z"/>
	<path class="st0" d="M383.9,400.9h-1.6c-1.2,0-1.9-0.2-2.5-0.8c-0.8-0.8-1.6-2.2-2.2-2.8H377v1.7c0,1,0.4,1.1,1.4,1.1v0.6h-4.9
		v-0.6c1.1,0,1.4-0.2,1.4-1.1v-4.5c0-1-0.2-1.2-1.4-1.2v-0.6c0.8,0,1.3-0.1,2.4-0.1c0.8,0,1.6-0.1,2.1-0.1c2.1,0,4,0.4,4,2.4
		c0,1-0.6,1.7-1.9,2.1c0.8,0.7,1.3,1.8,2.1,2.6c0.6,0.6,1.1,0.7,1.8,0.7V400.9z M377,396.7c1.9,0,2.6-0.6,2.6-1.9
		c0-1-0.7-1.7-1.9-1.7H377V396.7z"/>
</g>
<g>
	<path class="st0" d="M390.1,400.9c-3.7,0-4.8-2.4-4.8-4.2c0-2.2,1.6-4.3,5.1-4.3c3.6,0,4.7,2.4,4.7,4.2
		C395.1,398.3,394,400.9,390.1,400.9z M390,393.1c-1.2,0-2.4,0.8-2.4,3.1c0,2.5,1.2,4.2,2.9,4.2c1.3,0,2.3-1,2.3-3.1
		C392.8,394.8,391.6,393.1,390,393.1z"/>
	<path class="st0" d="M402.5,392.6v0.6c-1.1,0-1.3,0.2-1.3,1.2v4.5c0,0.8,0.1,0.9,1,0.9h1c0.8,0,1.1,0,2.2-1.5h0.6l-1,2.4h-7.2v-0.6
		c1.1,0,1.3-0.3,1.3-1.3v-4.4c0-0.9-0.1-1.2-1.3-1.2v-0.6H402.5z"/>
</g>
<g>
	<path class="st0" d="M408.5,400.7v-0.6c0.9,0,1.1-0.3,1.1-1.2v-4.5c0-0.9-0.2-1.2-1.1-1.2v-0.6h4.5v0.6c-1,0-1.2,0.3-1.2,1.2v4.4
		c0,0.8,0.1,1.2,1.2,1.2v0.6H408.5z"/>
	<path class="st0" d="M426.5,392.6v0.6c-0.9,0-1.2,0.3-1.2,1.2v6.4h-1l-5.9-6.2v4.3c0,0.9,0.1,1.2,1.2,1.2v0.6h-3.3v-0.6
		c0.9,0,1.2-0.2,1.2-1.3v-5.2c-0.2-0.2-0.5-0.3-1.1-0.3v-0.6h3.1l4.9,5.3v-3.5c0-0.8-0.1-1.2-1.2-1.2v-0.6H426.5z"/>
</g>
<path class="st0" d="M437.5,400.7h-4.7v-0.6c0.9,0,1.2-0.1,1.2-0.4c0-0.2-0.1-0.5-0.3-1l-0.3-0.8h-2.9l-0.2,0.7
	c-0.2,0.5-0.3,0.9-0.3,1c0,0.4,0.4,0.5,1.1,0.5v0.6h-3.3v-0.6c1,0,1.1-0.2,1.5-1.6l2-5.8l-0.1-0.3h2.3l2.4,6.2
	c0.5,1.2,0.8,1.5,1.5,1.5V400.7z M431.9,394.1l-1.1,3.1h2.3L431.9,394.1z"/>
<g>
	<path class="st0" d="M268.9,418.5c-0.1,0.3-0.1,0.6,0.1,0.6c0.2,0,0.7-0.5,1-0.9v0.5c-0.8,0.8-1.6,1.4-2.1,1.4
		c-0.4,0-0.6-0.3-0.6-0.9c0-0.3,0-0.4,0.1-0.9h0c-0.9,1-1.8,1.8-2.2,1.8c-0.3,0-1-0.4-1-1.4c0-1,0.3-2.2,1.6-3.5
		c1.2-1.2,2.3-1.5,4.2-1.5L268.9,418.5z M268.1,414.6c-0.8,0-1.2,0.2-1.7,0.7c-0.5,0.5-0.9,1.6-0.9,2.4c0,0.6,0.2,1,0.6,1
		c0.3,0,0.8-0.5,1.4-1.1L268.1,414.6z"/>
	<path class="st0" d="M273.6,418.7c-0.1,0.3,0.1,0.5,0.3,0.5c0.2,0,0.7-0.4,1.1-0.9l0.3,0.3c-0.8,0.9-1.8,1.5-2.5,1.5
		c-0.6,0-0.9-0.4-0.8-1.3l0.9-4.3h-0.7l0.1-0.3c1-0.3,1.8-1.1,2.7-2.3h0.4c-0.3,0.6-0.5,1.2-0.7,2h1.2l-0.1,0.7h-1.2L273.6,418.7z"
		/>
</g>
<g>
	<path class="st0" d="M292.2,417.4c-0.1,0.7-0.4,1.7-0.8,2.6l0,0.1c-0.1,0-0.2-0.1-0.4-0.1c-0.1,0-0.3,0-0.4,0c-0.4,0-0.7,0-1.1,0.1
		c-0.4,0-0.8,0.1-1.3,0.1c-1.7,0-2.9-0.6-3.7-1.4c-0.7-0.8-1.1-1.8-1.1-2.7c0-1.3,0.5-2.4,1.4-3.2c0.9-0.8,2.2-1.2,3.7-1.2
		c1.4,0,2.2,0.4,2.5,0.4c0.1,0,0.2-0.1,0.2-0.2h0.5l0.1,2.7h-0.6c-0.1-0.7-0.5-1.2-0.9-1.6c-0.5-0.4-1-0.6-1.7-0.6
		c-1.7,0-2.9,1.4-2.9,3.4c0,2.1,1.2,3.6,3.1,3.6c1.2,0,2.2-0.7,2.8-2H292.2z"/>
	<path class="st0" d="M302.4,415.4v-1.6c0-1-0.2-1.3-1.1-1.3v-0.6h4.4v0.6c-0.9,0-1.1,0.3-1.1,1.1v4.5c0,0.9,0.1,1.3,1.1,1.3v0.6
		h-4.4v-0.6c0.8,0,1.1-0.2,1.1-1.3v-1.9h-3.9v1.9c0,0.8,0.1,1.2,1.1,1.2v0.6h-4.5v-0.6c0.9,0,1.1-0.2,1.1-1.3v-4.4
		c0-1-0.3-1.2-1.1-1.2v-0.6h4.5v0.6c-0.9,0.1-1.1,0.2-1.1,1.2v1.7H302.4z"/>
</g>
<g>
	<path class="st0" d="M317.5,420h-4.7v-0.6c0.9,0,1.2-0.1,1.2-0.4c0-0.2-0.1-0.5-0.3-1l-0.3-0.8h-2.9l-0.2,0.7
		c-0.2,0.5-0.3,0.9-0.3,1c0,0.4,0.4,0.5,1.1,0.5v0.6h-3.3v-0.6c1,0,1.1-0.2,1.5-1.6l2-5.8l-0.1-0.3h2.3l2.4,6.2
		c0.5,1.2,0.8,1.5,1.5,1.5V420z M311.9,413.3l-1.1,3.1h2.3L311.9,413.3z"/>
	<path class="st0" d="M320.9,414.1c0-1.4-0.1-1.5-1.2-1.6v-0.6c0.7,0,1.7-0.1,2.6-0.1c0.9,0,1.6-0.1,1.8-0.1c2.2,0,3.6,0.9,3.6,2.5
		c0,1.1-0.8,2.5-3.2,2.5c-0.4,0-1-0.1-1.4-0.1v1.7c0,0.8,0.2,1,1.5,1v0.6h-4.8v-0.6c0.9,0,1.2-0.3,1.2-1.3V414.1z M323.1,415.9
		c0.2,0.1,0.4,0.1,0.6,0.1c1.1,0,1.7-0.7,1.7-1.9c0-1.1-0.6-1.8-1.6-1.8c-0.3,0-0.5,0-0.7,0.1V415.9z"/>
</g>
<g>
	<path class="st0" d="M337.9,411.9l0.1,1.9h-0.6c-0.1-0.9-0.3-1.1-0.9-1.1h-2.6v2.8h1.7c0.9,0,1.2-0.2,1.2-1h0.6v2.7h-0.6
		c0-0.7-0.2-0.9-1.2-0.9h-1.7v2.1c0,0.7,0.1,0.7,0.8,0.7h1.5c1.1,0,1.4-0.5,1.6-1.4h0.6l-0.2,2.2h-7.9v-0.6c1.2,0,1.4-0.3,1.4-1.2
		v-4.5c0-1.1-0.4-1.2-1.3-1.2v-0.6H337.9z"/>
	<path class="st0" d="M346.4,411.9v0.6c-1.1,0-1.3,0.2-1.3,1.2v4.5c0,0.8,0.1,0.9,1,0.9h1c0.8,0,1.1,0,2.2-1.5h0.6l-1,2.4h-7.2v-0.6
		c1.1,0,1.3-0.3,1.3-1.3v-4.4c0-0.9-0.1-1.2-1.3-1.2v-0.6H346.4z"/>
</g>
<g>
	<path class="st0" d="M364.8,415.4v-1.6c0-1-0.2-1.3-1.1-1.3v-0.6h4.4v0.6c-1,0-1.1,0.3-1.1,1.1v4.5c0,0.9,0.1,1.3,1.1,1.3v0.6h-4.4
		v-0.6c0.8,0,1.1-0.2,1.1-1.3v-1.9h-3.9v1.9c0,0.8,0.1,1.2,1.1,1.2v0.6h-4.5v-0.6c0.9,0,1.1-0.2,1.1-1.3v-4.4c0-1-0.3-1.2-1.1-1.2
		v-0.6h4.5v0.6c-0.9,0.1-1.1,0.2-1.1,1.2v1.7H364.8z"/>
	<path class="st0" d="M371.6,420v-0.6c0.9,0,1.1-0.3,1.1-1.2v-4.5c0-0.9-0.2-1.2-1.1-1.2v-0.6h4.5v0.6c-1,0-1.2,0.3-1.2,1.2v4.4
		c0,0.8,0.1,1.2,1.2,1.2v0.6H371.6z"/>
</g>
<g>
	<path class="st0" d="M383.9,411.9v0.6c-1.1,0-1.3,0.2-1.3,1.2v4.5c0,0.8,0.1,0.9,1,0.9h1c0.8,0,1.1,0,2.2-1.5h0.6l-1,2.4h-7.2v-0.6
		c1.1,0,1.3-0.3,1.3-1.3v-4.4c0-0.9-0.1-1.2-1.3-1.2v-0.6H383.9z"/>
	<path class="st0" d="M393.6,411.9v0.6c-1.1,0-1.3,0.2-1.3,1.2v4.5c0,0.8,0.1,0.9,1,0.9h1c0.8,0,1.1,0,2.2-1.5h0.6l-1,2.4h-7.2v-0.6
		c1.1,0,1.3-0.3,1.3-1.3v-4.4c0-0.9-0.1-1.2-1.3-1.2v-0.6H393.6z"/>
</g>
</svg>
