<svg id="Layer_1" data-name="Layer 1" xmlns="http://www.w3.org/2000/svg" viewBox="0 0 172.64 138.94"><defs><style>.cls-1{fill:#231f20;}</style></defs><title>UNC_logo_black_v</title><rect class="cls-1" x="36.82" y="75.81" width="99.75" height="0.81"/><path class="cls-1" d="M241.47,421.84h-.61c-.19-1.27-.43-1.55-1.29-1.55h-1.46v5.27c0,1.11.15,1.29,1.42,1.29v.6h-5v-.6c1.27,0,1.43-.18,1.43-1.29v-5.27h-1.55c-.61,0-1,.25-1.2,1.55h-.61l.25-2.56h.55a.44.44,0,0,0,.21.17,2.22,2.22,0,0,0,.44,0h5.84c.61,0,.69,0,.81-.2h.56l.24,2.56" transform="translate(-219.68 -326.53)"/><path class="cls-1" d="M251.75,423v-1.61c0-1-.21-1.24-1.09-1.26v-.61h4.4v.61c-.95,0-1.13.25-1.13,1.1v4.39c0,.9.1,1.25,1.13,1.27v.6h-4.4v-.6c.84,0,1.09-.24,1.09-1.25v-1.85h-3.89v1.89c0,.78.09,1.18,1.13,1.21v.6h-4.45v-.6c.89,0,1.14-.2,1.14-1.25v-4.28c0-1-.28-1.23-1.14-1.23v-.61H249v.61c-.87.05-1.13.16-1.13,1.21V423h3.89" transform="translate(-219.68 -326.53)"/><path class="cls-1" d="M265.93,419.48l.12,1.91h-.62c-.11-.87-.31-1.11-.94-1.11H262v2.79h1.67c.92,0,1.17-.19,1.17-1h.61v2.67h-.61c0-.71-.21-.91-1.16-.91H262v2.07c0,.68.07.72.77.72h1.51c1.13,0,1.43-.48,1.62-1.33h.61l-.17,2.13h-7.91v-.6c1.18,0,1.39-.27,1.39-1.18v-4.41c0-1.08-.38-1.17-1.3-1.17v-.61h7.46" transform="translate(-219.68 -326.53)"/><path class="cls-1" d="M284.58,419.48v.61c-1.09,0-1.31.19-1.31,1.21v2.83c0,2.56-1.6,3.52-3.82,3.52s-3.91-1-3.91-2.93v-3.39c0-.87-.18-1.24-1.09-1.24v-.61h4.43v.61c-.94,0-1.16.27-1.16,1.12v3.41c0,1.19.65,1.93,2.25,1.93s2.38-.91,2.38-2.53v-2.7c0-1-.24-1.23-1.29-1.23v-.61h3.52" transform="translate(-219.68 -326.53)"/><path class="cls-1" d="M297.6,419.48v.61c-.93,0-1.16.25-1.16,1.15v6.3h-1l-5.88-6.12v4.22c0,.85.13,1.21,1.23,1.21v.6h-3.33v-.6c.91,0,1.18-.2,1.18-1.27v-5.16a1.51,1.51,0,0,0-1.09-.33v-.61h3.06l4.93,5.18v-3.43c0-.79-.14-1.14-1.19-1.14v-.61h3.27" transform="translate(-219.68 -326.53)"/><path class="cls-1" d="M300.66,427.45v-.6c.92,0,1.11-.34,1.11-1.15v-4.38c0-.9-.18-1.23-1.11-1.23v-.61h4.47v.61c-1,0-1.18.33-1.18,1.23v4.3c0,.79.08,1.23,1.18,1.23v.6h-4.47" transform="translate(-219.68 -326.53)"/><path class="cls-1" d="M317.37,420.09c-.94,0-1.17.18-1.75,1.43l-2.81,6.13h-.95l-2.72-6c-.68-1.49-.82-1.6-1.69-1.6v-.61h4.89v.61c-1,0-1.32.18-1.32.51a2.19,2.19,0,0,0,.25.78l1.72,3.73,1.49-3.3a3.72,3.72,0,0,0,.46-1.25c0-.33-.34-.5-1.15-.47v-.61h3.58v.61" transform="translate(-219.68 -326.53)"/><path class="cls-1" d="M326.54,419.48l.11,1.91H326c-.11-.87-.31-1.11-.94-1.11h-2.54v2.79h1.67c.92,0,1.16-.19,1.16-1H326v2.67h-.62c0-.71-.2-.91-1.15-.91h-1.68v2.07c0,.68.07.72.78.72h1.5c1.13,0,1.43-.48,1.62-1.33h.61l-.17,2.13H319v-.6c1.18,0,1.39-.27,1.39-1.18v-4.41c0-1.08-.38-1.17-1.3-1.17v-.61h7.46" transform="translate(-219.68 -326.53)"/><path class="cls-1" d="M341,427.56h-1.6a3.21,3.21,0,0,1-2.45-.76c-.84-.83-1.61-2.19-2.23-2.73H334v1.71c0,1,.38,1.07,1.39,1.07v.6h-4.92v-.6c1.09,0,1.35-.2,1.35-1.13v-4.47c0-1-.23-1.16-1.35-1.16v-.61c.79-.05,1.33-.09,2.37-.14.81,0,1.62-.06,2.06-.06,2.07,0,4,.34,4,2.32,0,1-.64,1.69-1.86,2.09.83.64,1.31,1.75,2.14,2.57a2.37,2.37,0,0,0,1.82.7v.6Zm-7-4.12c1.88,0,2.56-.55,2.56-1.87,0-1-.66-1.68-1.92-1.68H334v3.55" transform="translate(-219.68 -326.53)"/><path class="cls-1" d="M343.29,425a2.42,2.42,0,0,0,2.3,2,1.19,1.19,0,0,0,1.33-1.14c0-1.69-4.12-1.86-4.12-4.35,0-.9.63-2.21,2.76-2.21a17.26,17.26,0,0,1,2,.26.28.28,0,0,0,.29-.17h.43l.22,2.28h-.61a2.31,2.31,0,0,0-2.2-1.69c-.67,0-1.14.33-1.14.8,0,1.34,4.34,1.71,4.34,4.46,0,1.45-1.24,2.43-3,2.43a14.54,14.54,0,0,1-2.08-.28.32.32,0,0,0-.33.19H343l-.35-2.53h.61" transform="translate(-219.68 -326.53)"/><path class="cls-1" d="M352.08,427.45v-.6c.92,0,1.11-.34,1.11-1.15v-4.38c0-.9-.18-1.23-1.11-1.23v-.61h4.47v.61c-1,0-1.18.33-1.18,1.23v4.3c0,.79.08,1.23,1.18,1.23v.6h-4.47" transform="translate(-219.68 -326.53)"/><path class="cls-1" d="M368.18,421.84h-.61c-.18-1.27-.43-1.55-1.28-1.55h-1.47v5.27c0,1.11.16,1.29,1.43,1.29v.6h-5v-.6c1.27,0,1.42-.18,1.42-1.29v-5.27H361.1c-.61,0-1,.25-1.21,1.55h-.61l.25-2.56h.56a.38.38,0,0,0,.2.17,2.41,2.41,0,0,0,.45,0h5.83c.61,0,.69,0,.82-.2H368l.23,2.56" transform="translate(-219.68 -326.53)"/><path class="cls-1" d="M380,420.09c-.88,0-1.1.18-1.8,1.24l-1.91,2.89v1.41c0,.92.13,1.22,1.28,1.22v.6h-4.76v-.6c1.15,0,1.3-.31,1.3-1.23V424.3l-2.39-3.19c-.62-.83-.87-1-1.6-1v-.61h4.67v.61c-.64,0-.89.07-.89.32a.86.86,0,0,0,.21.42l1.81,2.43,1.32-2a1.71,1.71,0,0,0,.33-.74c0-.3-.22-.41-.85-.41v-.61H380v.61" transform="translate(-219.68 -326.53)"/><path class="cls-1" d="M223.69,440.23c1,0,1.59.85,1.59,2.15a4.32,4.32,0,0,1-4,4.14c-1,0-1.62-.87-1.62-2.09a4.37,4.37,0,0,1,4-4.2Zm-1.48,5.67c.57,0,1.38-1.44,1.38-3.26,0-1-.38-1.81-.81-1.81-.61,0-1.38,1.48-1.38,3.25,0,1.05.34,1.82.81,1.82" transform="translate(-219.68 -326.53)"/><path class="cls-1" d="M228.9,445.86a5.09,5.09,0,0,1-1.47,3,3.14,3.14,0,0,1-2.32.93c-.91,0-1.54-.36-1.54-.89a.82.82,0,0,1,.84-.73c.9,0,.87,1.1,1.57,1.1.53,0,.87-.62,1-1.6l1.11-6.59H227l.07-.35a2.68,2.68,0,0,0,1.17-.32c.31-2.05,1.53-3.85,3.56-3.85.88,0,1.39.31,1.39.83a.78.78,0,0,1-.8.77c-.83,0-1.14-1-1.65-1-.35,0-.47.54-.68,1.81l-.23,1.45h1.06l-.15.67h-1l-.81,4.81" transform="translate(-219.68 -326.53)"/><path class="cls-1" d="M248.91,438.39v.6c-.93,0-1.17.26-1.17,1.16v6.3h-1l-5.88-6.13v4.23c0,.85.13,1.21,1.24,1.21v.6h-3.34v-.6c.91,0,1.18-.2,1.18-1.27v-5.16a1.43,1.43,0,0,0-1.09-.34v-.6h3.07l4.92,5.17v-3.43c0-.78-.14-1.14-1.19-1.14v-.6h3.28" transform="translate(-219.68 -326.53)"/><path class="cls-1" d="M255.93,446.56c-3.65,0-4.78-2.35-4.78-4.14,0-2.15,1.56-4.23,5.11-4.23s4.7,2.35,4.7,4.09-1.09,4.28-5,4.28Zm-.07-7.76c-1.17,0-2.4.82-2.4,3,0,2.42,1.18,4.11,2.88,4.11,1.29,0,2.31-1,2.31-3.05,0-2.42-1.14-4.1-2.79-4.1" transform="translate(-219.68 -326.53)"/><path class="cls-1" d="M273.81,446.47h-1.6a3.2,3.2,0,0,1-2.45-.77c-.84-.83-1.61-2.19-2.23-2.72h-.69v1.71c0,.95.38,1.07,1.39,1.07v.6h-4.91v-.6c1.08,0,1.34-.2,1.34-1.13v-4.47c0-1-.23-1.17-1.34-1.17v-.6c.79-.05,1.32-.09,2.36-.14.81,0,1.62-.06,2.06-.06,2.07,0,4,.34,4,2.31,0,1-.64,1.69-1.86,2.09.83.64,1.31,1.76,2.14,2.58a2.37,2.37,0,0,0,1.82.7v.6Zm-7-4.12c1.88,0,2.56-.55,2.56-1.87,0-1-.66-1.68-1.92-1.68h-.64v3.55" transform="translate(-219.68 -326.53)"/><path class="cls-1" d="M284.07,440.75h-.61c-.18-1.27-.42-1.55-1.28-1.55h-1.47v5.26c0,1.11.16,1.3,1.43,1.3v.6h-5v-.6c1.27,0,1.42-.19,1.42-1.3V439.2H277c-.61,0-1,.24-1.21,1.55h-.61l.25-2.56H276a.41.41,0,0,0,.2.16,1.63,1.63,0,0,0,.44,0h5.84c.61,0,.69,0,.82-.2h.56l.23,2.56" transform="translate(-219.68 -326.53)"/><path class="cls-1" d="M294.11,441.86v-1.6c0-1-.21-1.24-1.09-1.27v-.6h4.39v.6c-1,0-1.13.26-1.13,1.1v4.4c0,.89.1,1.25,1.13,1.27v.6H293v-.6c.84,0,1.09-.25,1.09-1.25v-1.85h-3.9v1.89c0,.78.09,1.18,1.13,1.21v.6h-4.45v-.6c.9,0,1.14-.2,1.14-1.25v-4.29c0-1-.28-1.23-1.14-1.23v-.6h4.45v.6c-.87.05-1.13.17-1.13,1.22v1.65h3.9" transform="translate(-219.68 -326.53)"/><path class="cls-1" d="M314.67,443.85a11.41,11.41,0,0,1-.79,2.54l0,.09a2.32,2.32,0,0,0-.38-.07,1.71,1.71,0,0,0-.41,0,9.18,9.18,0,0,0-1.13.09,12,12,0,0,1-1.26.09,4.79,4.79,0,0,1-3.67-1.37,4,4,0,0,1,.36-5.8,5.59,5.59,0,0,1,3.68-1.2,11.69,11.69,0,0,1,2.48.38c.12,0,.18-.05.24-.18h.48l.11,2.68h-.61a2.66,2.66,0,0,0-.92-1.56,2.53,2.53,0,0,0-1.67-.58c-1.73,0-2.91,1.39-2.91,3.38s1.23,3.51,3,3.51a3,3,0,0,0,2.78-2h.61" transform="translate(-219.68 -326.53)"/><path class="cls-1" d="M326.13,446.36h-4.7v-.6c.88,0,1.19-.11,1.19-.44a3.44,3.44,0,0,0-.27-.95l-.3-.75H319.2l-.24.67a5.58,5.58,0,0,0-.28,1c0,.35.43.48,1.14.48v.6h-3.33v-.6c.95,0,1.07-.22,1.54-1.55l2-5.74-.11-.28h2.33l2.36,6.05c.47,1.19.75,1.48,1.5,1.52v.6Zm-5.57-6.57-1.08,3h2.27l-1.19-3" transform="translate(-219.68 -326.53)"/><path class="cls-1" d="M339,446.47h-1.6a3.21,3.21,0,0,1-2.45-.77c-.84-.83-1.6-2.19-2.23-2.72H332v1.71c0,.95.37,1.07,1.38,1.07v.6H328.5v-.6c1.08,0,1.34-.2,1.34-1.13v-4.47c0-1-.23-1.17-1.34-1.17v-.6c.79-.05,1.32-.09,2.36-.14.82,0,1.62-.06,2.06-.06,2.08,0,4,.34,4,2.31,0,1-.64,1.69-1.85,2.09.83.64,1.3,1.76,2.13,2.58a2.37,2.37,0,0,0,1.82.7v.6Zm-7-4.12c1.87,0,2.55-.55,2.55-1.87,0-1-.66-1.68-1.92-1.68H332v3.55" transform="translate(-219.68 -326.53)"/><path class="cls-1" d="M345.09,446.56c-3.64,0-4.77-2.35-4.77-4.14,0-2.15,1.55-4.23,5.11-4.23s4.69,2.35,4.69,4.09-1.09,4.28-5,4.28ZM345,438.8c-1.16,0-2.4.82-2.4,3,0,2.42,1.19,4.11,2.88,4.11,1.29,0,2.32-1,2.32-3.05,0-2.42-1.15-4.1-2.8-4.1" transform="translate(-219.68 -326.53)"/><path class="cls-1" d="M357.53,438.39v.6c-1.1,0-1.32.21-1.32,1.22v4.44c0,.78.09.91,1,.91h1c.79,0,1.06,0,2.15-1.52h.61l-1,2.32h-7.17v-.6c1.13,0,1.27-.34,1.27-1.25v-4.3c0-.92-.14-1.22-1.27-1.22v-.6h4.77" transform="translate(-219.68 -326.53)"/><path class="cls-1" d="M363.45,446.36v-.6c.92,0,1.11-.34,1.11-1.16v-4.38c0-.89-.18-1.23-1.11-1.23v-.6h4.47v.6c-1,0-1.18.34-1.18,1.23v4.3c0,.8.08,1.24,1.18,1.24v.6h-4.47" transform="translate(-219.68 -326.53)"/><path class="cls-1" d="M381.39,438.39v.6c-.93,0-1.16.26-1.16,1.16v6.3h-1l-5.87-6.13v4.23c0,.85.13,1.21,1.23,1.21v.6h-3.33v-.6c.9,0,1.18-.2,1.18-1.27v-5.16a1.46,1.46,0,0,0-1.09-.34v-.6h3.05l4.94,5.17v-3.43c0-.78-.15-1.14-1.2-1.14v-.6h3.28" transform="translate(-219.68 -326.53)"/><path class="cls-1" d="M392.32,446.36h-4.71v-.6c.88,0,1.19-.11,1.19-.44a3.44,3.44,0,0,0-.27-.95l-.3-.75h-2.85l-.24.67a5.58,5.58,0,0,0-.28,1c0,.35.43.48,1.14.48v.6h-3.33v-.6c1,0,1.07-.22,1.54-1.55l2-5.74-.12-.28h2.33l2.36,6.05c.47,1.19.76,1.48,1.51,1.52v.6Zm-5.58-6.57-1.08,3h2.27l-1.19-3" transform="translate(-219.68 -326.53)"/><path class="cls-1" d="M244.71,463.85c-.07.32-.1.55.06.55a3.23,3.23,0,0,0,1-.86V464a3.84,3.84,0,0,1-2.12,1.4c-.38,0-.59-.32-.59-.87a3.45,3.45,0,0,1,.11-.92h0c-.94.95-1.78,1.79-2.23,1.79a1.27,1.27,0,0,1-1-1.41,4.7,4.7,0,0,1,1.62-3.41,5.06,5.06,0,0,1,4.16-1.46l-1,4.71Zm-.8-3.82a2.21,2.21,0,0,0-1.7.67,3.73,3.73,0,0,0-.92,2.37c0,.6.24,1,.61,1s.8-.45,1.4-1.07l.61-3" transform="translate(-219.68 -326.53)"/><path class="cls-1" d="M249.41,464.08c-.06.26.07.47.27.47a2.72,2.72,0,0,0,1.14-.86l.26.27a4,4,0,0,1-2.5,1.46c-.55,0-.93-.42-.77-1.24l.87-4.22H248l.06-.33a5.68,5.68,0,0,0,2.68-2.29h.38a10.38,10.38,0,0,0-.68,1.94h1.17l-.13.68h-1.17l-.86,4.12" transform="translate(-219.68 -326.53)"/><path class="cls-1" d="M267.89,462.75a10.51,10.51,0,0,1-.79,2.55l0,.09a2,2,0,0,0-.37-.08,2.68,2.68,0,0,0-.42,0,9.49,9.49,0,0,0-1.13.09,11.64,11.64,0,0,1-1.25.09,4.81,4.81,0,0,1-3.67-1.37,4,4,0,0,1,.36-5.8,5.58,5.58,0,0,1,3.68-1.21,11.42,11.42,0,0,1,2.48.39c.12,0,.18-.05.23-.18h.48l.12,2.67H267a2.75,2.75,0,0,0-.92-1.56,2.6,2.6,0,0,0-1.67-.57c-1.73,0-2.91,1.39-2.91,3.38s1.23,3.51,3.05,3.51a3,3,0,0,0,2.77-2h.61" transform="translate(-219.68 -326.53)"/><path class="cls-1" d="M278.07,460.77v-1.6c0-1-.21-1.24-1.09-1.27v-.6h4.4v.6c-.95,0-1.13.26-1.13,1.1v4.39c0,.9.1,1.26,1.13,1.27v.6H277v-.6c.84,0,1.09-.24,1.09-1.24v-1.86h-3.89v1.9c0,.78.09,1.18,1.13,1.2v.6h-4.45v-.6c.89,0,1.14-.19,1.14-1.24v-4.29c0-1-.29-1.23-1.14-1.23v-.6h4.45v.6c-.87.05-1.13.17-1.13,1.22v1.65h3.89" transform="translate(-219.68 -326.53)"/><path class="cls-1" d="M293.12,465.26h-4.71v-.6c.88,0,1.19-.1,1.19-.43a3.35,3.35,0,0,0-.27-1l-.3-.76h-2.85l-.24.68a5.35,5.35,0,0,0-.28,1c0,.34.43.47,1.14.47v.6h-3.33v-.6c1,0,1.07-.22,1.54-1.55l2-5.74-.12-.28h2.33l2.36,6.06c.47,1.19.76,1.47,1.51,1.51v.6Zm-5.58-6.57-1.08,3h2.28l-1.2-3" transform="translate(-219.68 -326.53)"/><path class="cls-1" d="M296.54,459.49c0-1.37-.06-1.53-1.16-1.59v-.6c.72,0,1.68-.11,2.56-.14l1.79-.07c2.19,0,3.63.87,3.63,2.49,0,1.09-.75,2.51-3.23,2.51a9.1,9.1,0,0,1-1.41-.14v1.7c0,.75.23,1,1.46,1v.6h-4.8v-.6c.93,0,1.16-.26,1.16-1.24v-3.93Zm2.18,1.83a2.48,2.48,0,0,0,.61.06,1.66,1.66,0,0,0,1.72-1.87,1.58,1.58,0,0,0-1.61-1.8,2.29,2.29,0,0,0-.72.09v3.52" transform="translate(-219.68 -326.53)"/><path class="cls-1" d="M313.46,457.3l.12,1.9H313c-.12-.87-.31-1.11-1-1.11h-2.54v2.79h1.67c.93,0,1.17-.19,1.17-1h.61v2.68h-.61c0-.72-.21-.91-1.15-.91h-1.69v2.06c0,.68.08.73.78.73h1.5a1.41,1.41,0,0,0,1.62-1.33H314l-.16,2.12h-7.92v-.6c1.18,0,1.39-.27,1.39-1.18v-4.4c0-1.09-.37-1.18-1.29-1.18v-.6h7.45" transform="translate(-219.68 -326.53)"/><path class="cls-1" d="M322,457.3v.6c-1.1,0-1.32.2-1.32,1.22v4.44c0,.78.09.91,1,.91h1c.79,0,1.06,0,2.15-1.52h.61l-1,2.31h-7.17v-.6c1.12,0,1.27-.33,1.27-1.24v-4.3c0-.93-.15-1.22-1.27-1.22v-.6H322" transform="translate(-219.68 -326.53)"/><path class="cls-1" d="M340.22,460.77v-1.6c0-1-.21-1.24-1.09-1.27v-.6h4.4v.6c-.95,0-1.13.26-1.13,1.1v4.39c0,.9.11,1.26,1.13,1.27v.6h-4.4v-.6c.84,0,1.09-.24,1.09-1.24v-1.86h-3.89v1.9c0,.78.09,1.18,1.13,1.2v.6H333v-.6c.9,0,1.14-.19,1.14-1.24v-4.29c0-1-.28-1.23-1.14-1.23v-.6h4.45v.6c-.87.05-1.13.17-1.13,1.22v1.65h3.89" transform="translate(-219.68 -326.53)"/><path class="cls-1" d="M347,465.26v-.6c.92,0,1.12-.33,1.12-1.15v-4.38c0-.9-.18-1.23-1.12-1.23v-.6h4.48v.6c-1,0-1.18.33-1.18,1.23v4.3c0,.8.08,1.23,1.18,1.23v.6H347" transform="translate(-219.68 -326.53)"/><path class="cls-1" d="M359.31,457.3v.6c-1.11,0-1.33.2-1.33,1.22v4.44c0,.78.09.91,1,.91h1c.79,0,1.06,0,2.15-1.52h.61l-1,2.31h-7.18v-.6c1.13,0,1.27-.33,1.27-1.24v-4.3c0-.93-.14-1.22-1.27-1.22v-.6h4.78" transform="translate(-219.68 -326.53)"/><path class="cls-1" d="M369,457.3v.6c-1.1,0-1.32.2-1.32,1.22v4.44c0,.78.09.91,1,.91h1c.79,0,1.06,0,2.15-1.52h.61l-1,2.31h-7.17v-.6c1.13,0,1.27-.33,1.27-1.24v-4.3c0-.93-.14-1.22-1.27-1.22v-.6H369" transform="translate(-219.68 -326.53)"/><path class="cls-1" d="M307.52,340.21c.11.11.18.09.18.09,8.42-.33,13.25,2.88,13.65,4.19l3.37-.06,1-2.28a.72.72,0,0,0,0-.54c-1-1.12-9.48-3.54-19.71-3.54-10.91,0-17.83,2.15-19.28,3.23a.76.76,0,0,0-.36.53,1.92,1.92,0,0,0,.2.56l.3.64c.09.19.22.18.44.05,0,0,.2-.06.24-.19a.65.65,0,0,0-.08-.36c-.22-.44.07-.5.08-.51l.63-.28c.3-.09.33.07.43.3a1.28,1.28,0,0,0,.2.38c.15.1.65-.19,2.14-.55a1.56,1.56,0,0,0,.35-.11c.14-.05,0-.55,0-.55-.06-.25-.17-.5.37-.59l.93-.19c.43-.11.47.12.53.36a1.54,1.54,0,0,0,.12.54c.12.2.35-.12,3.18-.42,0,0,.41,0,.5-.16a1,1,0,0,0,0-.48c0-.34-.17-.59.49-.63l1.24-.12c.93-.15.77.16.8.5a1.33,1.33,0,0,0,.11.44c.07.07.36.06.36.06,1.59-.16,2.48-.15,4.17-.22a.61.61,0,0,0,.32-.1.24.24,0,0,0,.06-.21c0-.19,0-.49.09-.62s.35-.08.57-.08h1.42c.22,0,.67-.1.8,0a2.31,2.31,0,0,1,.05.71.23.23,0,0,0,.07.16" transform="translate(-219.68 -326.53)"/><path class="cls-1" d="M306.09,326.53c-8.23,0-13.3,2.64-16.54,5.83a.34.34,0,0,0-.09.13c-.06.17-.07.41.26.29,7-3,14.76-1.1,17.21,1.68.09.13,0,.17-.09.17a54.3,54.3,0,0,0-9.14.52,61.65,61.65,0,0,0-6.55,1.19,22.65,22.65,0,0,0-6.45,2.6,1.1,1.1,0,0,0-.59.62c-.13.4-.12.4-.2.67a10,10,0,0,0-.26,1c0,.31.29.2.46,0a10.82,10.82,0,0,1,2.87-2,30.42,30.42,0,0,1,6.74-2,70.47,70.47,0,0,1,12.06-1.11,63.62,63.62,0,0,1,12.37,1.16,34.72,34.72,0,0,1,8.2,2.54,8,8,0,0,1,1.91,1.29c.45.46.48.06.47-.06a6.81,6.81,0,0,0-.84-2c-2.33-4.28-8.54-12.59-21.8-12.59" transform="translate(-219.68 -326.53)"/><path class="cls-1" d="M282.17,381.58c0,1.92,7.95,5.84,24.39,5.84,15.95,0,24.38-3.92,24.38-5.84l-.08-2.93c0,.06,0-.19,0-.12,0-.53-.87-.64-3.45-.67l-.05-1.63c0,.17-.55.52-.89.72-2.1,1.21-10.13,3-20.17,3-11.63,0-19.77-2.42-21.05-3.74l0,2.51c3.83,2.73,15.62,5.19,27.52,3.92a2.16,2.16,0,0,1,.84,0c.09,0,.42.32-.23.55-6.9,2.29-23.95,1.78-31.17-3.7l0,2.05" transform="translate(-219.68 -326.53)"/><path class="cls-1" d="M316.3,342.53h-4.5c-.22,0-.32.11-.32.33v.5c0,.24.1.34.34.34h1.39a.18.18,0,0,1,.17.07c.05.15-.2.26-.29.32l-.69.45a.47.47,0,0,0-.18.43l0,32.21c.07.57,1,.62,1.95.62.82,0,1.8-.05,1.9-.6,0,0,0-30.66,0-33.31,0-.12.06-.15.08-.16a.67.67,0,0,1,.17,0c.21,0,.32-.11.32-.32v-.54a.31.31,0,0,0-.31-.31" transform="translate(-219.68 -326.53)"/><path class="cls-1" d="M308.91,364.94l.11-.21h.3v-.2h-6.24v.2h.34l.09.19.37.79a.5.5,0,0,0,.15.1.91.91,0,0,0,.31.05c1.63,0,1.28,0,1.54,0a.54.54,0,0,1,.37.11.29.29,0,0,1-.13.41l-1.85,1.21a.6.6,0,0,0-.24.24.55.55,0,0,0,0,.23v6.05l-.53.21s-.16,1.2,0,1.33a41.15,41.15,0,0,0,5.44,0c.18-.11,0-1.36,0-1.36l-.54-.18V366Z" transform="translate(-219.68 -326.53)"/><path class="cls-1" d="M325,344.29h-4.5c-.22,0-.32.11-.33.33v.51c0,.24.11.34.35.34h1.39c.13,0,.16.05.17.07s-.21.26-.29.31l-.69.45a.44.44,0,0,0-.18.43l0,29c.06.57,1,.62,1.94.61.83,0,1.8,0,1.91-.6,0,0,0-27.49,0-30.14,0-.12.06-.15.08-.16a.67.67,0,0,1,.17,0,.3.3,0,0,0,.32-.31v-.54a.3.3,0,0,0-.31-.31" transform="translate(-219.68 -326.53)"/><path class="cls-1" d="M300.44,342.53H296c-.22,0-.32.11-.32.33v.5c0,.24.1.34.34.34h1.39c.13,0,.16.06.16.07s-.2.26-.28.32l-.69.45a.43.43,0,0,0-.18.43l0,32.22c.06.56,1,.61,1.94.61s1.8-.05,1.91-.6c0,0,0-30.66,0-33.31,0-.12.06-.15.08-.16a.67.67,0,0,1,.17,0,.3.3,0,0,0,.32-.31v-.55a.31.31,0,0,0-.32-.31" transform="translate(-219.68 -326.53)"/><path class="cls-1" d="M291.7,344.37h-4.5c-.22,0-.32.11-.32.33v.5c0,.24.1.34.34.34h1.39c.13,0,.16.06.17.08s-.21.25-.29.31l-.69.45c-.1.05-.19.18-.18.43l0,29c.06.57,1,.62,1.94.62s1.8-.05,1.91-.6c0,0,0-27.49,0-30.14,0-.12.06-.15.08-.16a.45.45,0,0,1,.17,0,.28.28,0,0,0,.32-.31v-.54a.31.31,0,0,0-.31-.31" transform="translate(-219.68 -326.53)"/></svg>