<?xml version="1.0" encoding="UTF-8" standalone="no"?>
<!-- Created with Inkscape (http://www.inkscape.org/) -->
<svg xmlns:dc="http://purl.org/dc/elements/1.1/" xmlns:cc="http://creativecommons.org/ns#" xmlns:rdf="http://www.w3.org/1999/02/22-rdf-syntax-ns#" xmlns:svg="http://www.w3.org/2000/svg" xmlns="http://www.w3.org/2000/svg" xmlns:sodipodi="http://sodipodi.sourceforge.net/DTD/sodipodi-0.dtd" xmlns:inkscape="http://www.inkscape.org/namespaces/inkscape" version="1.1" id="svg2" width="818.15674" height="690.62537" viewBox="0 0 818.15674 690.62536" sodipodi:docname="brain_search.svg" inkscape:version="0.92.3 (2405546, 2018-03-11)">
  <metadata id="metadata8">
    <rdf:RDF>
      <cc:Work rdf:about="">
        <dc:format>image/svg+xml</dc:format>
        <dc:type rdf:resource="http://purl.org/dc/dcmitype/StillImage"/>
        <dc:title/>
      </cc:Work>
    </rdf:RDF>
  </metadata>
  <defs id="defs6"/>
  <sodipodi:namedview pagecolor="#ffffff" bordercolor="#666666" borderopacity="1" objecttolerance="10" gridtolerance="10" guidetolerance="10" inkscape:pageopacity="0" inkscape:pageshadow="2" inkscape:window-width="1920" inkscape:window-height="1009" id="namedview4" showgrid="false" inkscape:zoom="0.7186887" inkscape:cx="433.99125" inkscape:cy="305.81523" inkscape:window-x="0" inkscape:window-y="34" inkscape:window-maximized="1" inkscape:current-layer="svg2" fit-margin-top="0" fit-margin-left="0" fit-margin-right="0" fit-margin-bottom="0"/>
  <path sodipodi:nodetypes="cccccccccccc" inkscape:connector-curvature="0" id="path4766" d="M 201.34394,643.74044 C 121.75242,633.69228 72.700102,559.97927 44.313775,492.11238 14.711858,429.91655 -13.038345,359.03958 8.862061,289.50138 38.333628,181.40452 115.82081,88.526422 212.86716,33.9728 330.93708,-24.210272 469.84552,-0.5191 585.22521,52.533932 690.8819,102.16457 789.37723,189.82715 812.82126,309.06009 c 11.84474,45.7587 0.71053,97.62306 -36.3363,128.91925 -34.50623,32.88978 -82.47918,46.2231 -129.04423,49.80229 -53.45021,7.5794 -90.82657,52.59545 -144.03002,60.53783 -45.65605,10.8288 -95.51067,5.75427 -139.90911,20.72489 -46.10213,26.2596 -79.15098,83.34829 -137.66226,81.9299 -8.86146,-0.50188 -16.22496,-4.0549 -24.4954,-7.23381 z" style="fill:#fcf5ea"/>
  <path sodipodi:nodetypes="ccccccccccccccccccccccccccccsccccccccccccccccccc" inkscape:connector-curvature="0" id="path4764" d="M 203.04573,644.17647 C 121.69122,634.87326 72.303962,558.27454 43.981953,488.76592 17.966517,429.24484 -12.753731,363.79957 6.946754,297.60429 33.300632,182.61779 117.23049,84.894246 220.78256,31.006937 340.10495,-24.050857 479.85137,3.096942 593.83989,58.496831 688.41823,107.56318 781.15856,182.81118 809.3284,290.08598 c 16.98236,57.46831 6.20272,131.68202 -49.66691,163.97393 -68.39686,33.21098 -134.8931,24.61492 -222.96334,85.36734 -68.66098,27.60297 -146.37043,-4.06366 -204.3436,50.8502 -33.42185,33.409 -78.59471,71.33951 -129.30882,53.89902 z M 110.3246,595.1559 c -115.430256,36.99324 -57.715127,18.49662 0,0 z m 394.03658,-48.42747 c 61.98493,-2.76524 94.25504,-81.36723 66.71315,-132.53443 -22.89019,-45.61593 -62.37004,-60.1264 -102.31373,-72.68469 -21.1627,-7.54105 -79.63555,-30.75255 -93.06629,-62.73526 29.07825,18.66645 85.58997,61.69136 121.40729,57.27631 33.31124,0.33062 49.85106,-29.14295 58.70279,-57.63243 11.65789,-38.57946 -31.53638,-71.56004 -13.70477,-108.97824 34.6356,-7.27036 47.06694,69.21975 26.73025,96.9042 -21.67347,39.24496 -1.01327,90.29587 19.15545,127.22337 23.252,39.81554 67.0294,62.13994 110.79611,70.69264 56.39728,4.49307 96.35902,-49.98934 107.04896,-99.74346 C 820.99812,298.09406 787.07163,233.9032 746.062,184.02034 695.73139,121.66703 626.26151,76.162539 550.91087,49.877517 506.98203,24.664925 483.59888,67.993043 533.77373,61.932314 c 19.4824,-9.772632 66.69131,29.376031 21.61211,17.58227 C 510.05869,78.602851 472.60054,50.984028 436.40991,27.257741 407.22246,6.43622 357.41386,4.600464 333.15328,24.284481 315.98839,38.211347 325.39903,93.982619 325.82146,90.190187 300.02311,88.041147 228.76546,104.69002 236.44725,79.681 291.97984,103.70753 297.11433,8.154867 242.10646,28.555866 119.45748,83.637014 23.203622,204.92758 13.607863,340.99827 c -4.428894,36.30653 7.429827,77.48015 42.899039,93.91545 51.986558,26.72816 113.092628,14.99183 167.445488,34.10012 63.10989,16.84661 124.57804,38.62913 185.83389,61.11596 30.54134,9.8254 62.33159,16.95705 94.5749,16.59863 z m 34.64255,-45.33889 C 534.63446,465.28331 423.14624,409.89511 376.71714,372.806 c 79.74914,11.60342 165.74579,93.27547 162.28659,128.58354 z m 225.706,-76.27287 c -39.13928,3.87556 -45.39035,-52.58601 -1.36051,-24.84062 7.23956,6.05225 9.19033,18.34206 1.36051,24.84062 z M 154.59141,363.73469 c -16.77104,-32.77247 44.82498,-23.68923 17.28348,-4.39439 -5.48463,2.42073 -11.38801,3.57579 -17.28348,4.39439 z M 117.54573,127.21632 c -0.17126,-35.685669 85.90857,105.61074 0,0 z" style="fill:#9b9997"/>
  <path sodipodi:nodetypes="cccccccccccccccccczccccccccssscccccczcc" inkscape:connector-curvature="0" id="path4762" d="M 205.28816,648.4743 C 115.83496,629.54807 72.071532,560.24227 43.764083,492.14841 16.455715,431.55562 -13.680642,362.92735 6.688343,295.30559 33.77467,181.77232 118.38784,84.142101 220.72321,30.475861 340.09032,-24.942296 482.99688,1.928907 597.00816,57.469507 693.29068,106.79667 786.74113,187.36479 812.43099,297.15214 c 15.10513,55.27825 1.22902,130.59906 -52.45801,160.95023 -65.98706,32.1696 -139.71686,28.89621 -205.37911,73.09975 -76.15087,43.66272 -169.51499,13.80205 -211.41949,51.06651 -35.38792,37.13505 -82.95017,81.1269 -137.88622,66.20567 z m 36.70702,-10.36347 c 31.29204,-7.7201 64.88652,-19.00427 83.04094,-47.90385 1.3511,-33.08798 -44.01309,-26.52935 -56.31379,-55.55237 -18.89806,-23.79418 -42.75642,-45.64117 -74.08318,-49.74867 -37.27249,-10.22243 -90.88815,-14.11475 -112.635238,25.18895 -16.21702,40.42923 17.65719,81.39118 50.838958,101.21776 32.42851,19.28107 70.7317,35.77377 109.15231,26.79818 z m 262.366,-91.3824 c 69.28977,-3.45985 98.88037,-86.95134 72.41069,-136.54333 -26.46968,-49.59199 -59.70767,-48.43348 -40.34312,-79.04919 18.94274,-29.15082 -5.30079,25.60829 77.38262,99.74012 28.47045,22.57099 61.02702,42.16528 98.18876,39.70279 C 793.53181,449.81358 828.64076,350.67944 801.78259,277.3629 751.45398,146.53127 623.67993,61.769857 492.16088,27.517108 461.06774,40.945724 536.26374,72.517067 493.86615,56.472257 457.2405,31.600228 416.00916,10.749025 371.06663,6.145275 308.29769,-2.793554 238.92909,23.035919 193.22399,53.452595 80.607492,123.27238 -5.224885,245.62201 9.466685,380.61266 c 5.656349,51.97227 68.875817,69.64955 113.274935,74.39586 108.81065,11.63197 206.00329,56.44959 315.91759,89.28392 20.99878,6.2729 42.71299,5.63338 65.70197,2.43599 z M 491.81745,344.26101 c -25.12716,-2.7195 -67.10151,-18.99546 -77.42759,-35.83147 26.43516,19.44984 54.2665,21.24831 77.42759,35.83147 z M 381.38679,123.34906 C 361.2759,84.325928 311.63327,89.170242 274.59983,89.18805 c -33.35293,7.243203 -29.44967,-6.113242 2.77245,-6.671767 32.22212,-0.558524 76.20599,1.952118 97.98287,28.505907 4.27306,3.91816 4.82772,8.09464 6.03164,12.32687 z" style="fill:#000000"/>
  <path inkscape:connector-curvature="0" style="fill:#0055d4;stroke-width:1.05213082;stroke:none" d="M 804.6268,617.6601 699.72936,512.76267 c -4.73459,-4.7346 -11.15259,-7.36492 -17.88622,-7.36492 h -17.14973 c 29.03881,-37.14021 46.29375,-83.85483 46.29375,-134.67274 0,-120.88983 -97.95337,-218.8432 -218.84319,-218.8432 -120.88983,0 -218.8432,97.95337 -218.8432,218.8432 0,120.88982 97.95337,218.8432 218.8432,218.8432 50.81792,0 97.53252,-17.25494 134.67274,-46.29375 v 17.14973 c 0,6.73363 2.63033,13.15163 7.36491,17.88622 l 104.89743,104.89744 c 9.89003,9.89003 25.88242,9.89003 35.66723,0 l 29.77531,-29.7753 c 9.89003,-9.89003 9.89003,-25.88242 0.10521,-35.77245 z M 492.14397,505.39775 c -74.38565,0 -134.67274,-60.18189 -134.67274,-134.67274 0,-74.38564 60.18188,-134.67273 134.67274,-134.67273 74.38564,0 134.67274,60.18187 134.67274,134.67273 0,74.38564 -60.18188,134.67274 -134.67274,134.67274 z" id="path8450"/>
</svg>