<?xml version="1.0" encoding="UTF-8"?>
<!-- Created with Inkscape (http://www.inkscape.org/) -->
<svg width="500" height="500" version="1.1" viewBox="0 0 132.29 132.29" xmlns="http://www.w3.org/2000/svg">
 <g transform="translate(-12.41 -5.8289)">
  <g stroke-width=".26458"></g>
  <text x="46.28508" y="36.275349" fill="#4791db" font-family="Karumbi" font-size="63.268px" font-weight="bold" letter-spacing="0px" stroke-width="1.5817" word-spacing="0px" style="line-height:0.55" xml:space="preserve"><tspan x="46.28508" y="36.275349">Start</tspan><tspan x="46.28508" y="82.296349">here!</tspan></text>
  <path d="m35.721 55.83c-2.1107 0.40091-7.6288 12.185-9.8044 20.938-3.5622 14.331-2.4859 28.928 3.1848 43.191 1.6182 4.0701 1.6319 4.2006 0.31331 2.9709-7.5937-7.0818-9.0068-7.9586-10.365-6.4304-0.39868 0.44849-0.23762 0.93598 0.55538 1.6809 6.047 5.6802 14.484 13.393 15.395 14.074 0.96049 0.71794 1.2814 0.72063 2.0704 0.0173 0.57409-0.51173 0.99133-1.6188 1.0832-2.8741 0.08225-1.123 0.77774-5.3557 1.5456-9.4059 0.76788-4.0503 1.237-7.5724 1.0425-7.827-0.19445-0.25459-0.8121-0.14907-1.3725 0.23456-0.78819 0.53948-1.2831 2.1271-2.1855 7.0105-0.6416 3.4722-1.2889 6.326-1.4386 6.3418-0.39345 0.0415-3.2641-6.1336-4.8039-10.334-6.5685-17.917-4.86-39.136 4.5171-56.102 1.0014-1.8118 1.6969-3.3806 1.5454-3.4862-0.15156-0.10554-0.72864-0.10581-1.2826-5.92e-4z" fill="#4791db" stroke-width=".46629"/>
 </g>
</svg>
