<?xml version="1.0" encoding="UTF-8"?>
<!-- Created with Inkscape (http://www.inkscape.org/) -->
<svg width="500" height="500" version="1.1" viewBox="0 0 132.29 132.29" xmlns="http://www.w3.org/2000/svg">
 <g fill="#4791db">
  <g stroke-width="1.5817">
   <path d="m52.349 11.909c0.71704 0.29525 1.0756 0.73813 1.0756 1.3286 0 0.67486-0.37961 1.0756-1.1388 1.2021-1.2232 0.08436-2.2776 0.14762-3.1634 0.1898-0.88575 0-1.7504 0.08436-2.594 0.25307-0.88582 0.1648-1.7616 0.41513-2.6273 0.75098-0.90678 0.35179-1.8025 0.79741-2.6872 1.3369 0 0.08436-0.02109 0.14762-0.06327 0.1898 1.2232 0.75922 2.7838 1.413 4.6818 1.9613s3.3743 0.97011 4.4288 1.2654c1.0545 0.25307 1.9191 0.50614 2.594 0.75922s1.2864 0.50614 1.8348 0.75922c0.50614 0.25307 0.9912 0.56941 1.4552 0.94902 1.1388 0.88575 1.6028 1.8348 1.3919 2.8471-0.5905 2.4464-2.7627 4.0281-6.5166 4.7451-2.1933 0.42179-5.1247 0.48506-8.7943 0.1898-0.25307-0.04218-0.61159-0.06327-1.0756-0.06327s-0.94902-0.04218-1.4552-0.12654c-1.3075-0.16872-2.0878-0.48506-2.3409-0.94902-0.25307-0.75922-0.23198-1.2654 0.06327-1.5184 0.33743-0.29525 0.65377-0.44288 0.94902-0.44288s0.56941 0.08436 0.82248 0.25307c1.0545 0 2.362 0.08436 3.9226 0.25307 1.5606 0.12654 3.1212 0.21089 4.6818 0.25307 3.7961-0.04218 6.1581-0.97011 7.086-2.7838-0.50614-0.84357-2.826-1.9402-6.9595-3.2899-4.6818-1.4763-7.6343-2.6362-8.8575-3.4797-0.46396-0.46396-0.65377-0.88575-0.56941-1.2654 0.08436-0.37961 0.14762-0.69595 0.1898-0.94902 0.08436-0.54832 0.21089-0.94902 0.37961-1.2021 1.8137-1.9824 5.1036-3.058 9.8698-3.2267 1.2232-0.04218 2.362-0.10545 3.4165-0.1898z"/>
   <path d="m64.37 19.438q-1.1388 0.31634-2.7205 0.75922-1.2654 0.25307-1.5817-0.82248t0.75922-1.5184q1.2021-0.44288 4.0492-1.1388 0.31634-2.2776 1.0756-4.8084 0.82248-2.5307 1.2021-4.3655-0.12654-0.25307 0.06327-0.94902 0.1898-0.69595 0.31634-1.0756 0.1898-0.37961 0.56941-0.50614 0.37961-0.1898 0.82248-0.12654 0.94902 0.25307 0.94902 1.3286h0.06327l-0.12654 0.25307q-0.37961 2.2776-1.0123 4.492-0.56941 2.2144-1.0756 4.4288l-0.1898 0.75922 3.9859-0.75922q0.63268-0.06327 1.0123 0.25307 0.37961 0.31634 0.44288 0.75922 0.06327 0.44288-0.25307 0.88575-0.25307 0.44288-1.2654 0.63268-3.2899 0.63268-4.4288 0.88575-0.69595 3.8593-1.5817 7.5922-0.82248 3.6695-2.5307 7.2758-0.75922 1.0123-1.645 0.50614t-0.63268-1.5817q1.5184-3.2267 2.2776-6.4533 0.82248-3.2899 1.4552-6.7064z"/>
   <path d="m75.632 25.195q0.50614-1.0123 1.2021-1.898 0.75922-0.88575 2.594-2.6573 1.898-1.7715 3.4165-2.7205 1.5817-0.94902 2.3409-1.0123 0.75922-0.06327 1.2654 0.25307 1.0756 0.69595 0.63268 2.0878 0.44288-0.31634 0.82248-0.56941 0.37961-0.31634 0.94902-0.37961 0.63268-0.12654 1.0756 0.31634 0.44288 0.37961 0.31634 1.1388-0.63268 2.3409-1.3286 4.239-0.63268 1.898-0.37961 3.1001t1.8348 1.5184q1.5817 0.25307 5.5043-0.63268 0.63268-0.06327 1.0123 0.25307 0.37961 0.31634 0.44288 0.75922 0.06327 0.44288-0.25307 0.88575-0.25307 0.44288-1.1388 0.69595-2.2776 0.56941-4.5553 0.56941-2.2144 0.06327-3.4165-0.63268-1.1388-0.63268-1.645-1.7082-0.75922-1.7082 0.1898-5.2512-0.94902 0.94902-2.2776 2.4042t-1.898 2.0246q-0.56941 0.50614-1.0756 0.94902-0.44288 0.37961-1.5817 0.69595-1.0756 0.31634-2.1511 0.25307-1.0123-0.06327-1.7715-0.69595-0.75922-0.63268-0.69595-1.7715 0.06327-1.2021 0.56941-2.2144zm8.6677-3.8593q-0.69595-0.06327-1.0756-0.56941-1.5817 1.2654-3.2899 2.9103-1.7082 1.5817-2.2776 3.543 2.5307 0.69595 5.8207-3.8593 0.88575-1.2654 1.8348-2.2776-0.37961 0.12654-1.0123 0.25307z"/>
   <path d="m93.916 18.679q-0.37961-1.0756 0.12654-1.5184 0.50614-0.50614 0.88575-0.50614 0.44288 0 0.94902 0.37961 1.3286 1.645 1.2654 3.6695-0.06327 2.0246-0.1898 3.2267-0.06327 1.2021-0.12654 1.645 0 0.37961-0.06327 0.69595l-0.1898 2.0878q2.5307-3.6695 6.3901-5.8839 3.8594-2.2144 8.6677-4.0492 1.1388-0.12654 1.4552 0.88575 0.31634 0.94902-0.75922 1.5184-6.6431 2.5307-9.4269 4.6186-2.7205 2.0878-4.3022 4.3655-1.5817 2.2144-2.5307 5.3145-0.31634 0.75922-1.2021 1.0123h-0.12654q-1.1388-0.1898-1.3286-1.3286 0.06327-1.5817 0.37961-4.0492 0.31634-2.4675 0.56941-4.8716 0.63268-5.9472-0.44288-7.2126z"/>
   <path d="m115.17 19.438q-1.1388 0.31634-2.7205 0.75922-1.2654 0.25307-1.5817-0.82248t0.75922-1.5184q1.2021-0.44288 4.0492-1.1388 0.31634-2.2776 1.0756-4.8084 0.82248-2.5307 1.2021-4.3655-0.12654-0.25307 0.0633-0.94902 0.1898-0.69595 0.31634-1.0756 0.1898-0.37961 0.56941-0.50614 0.37961-0.1898 0.82248-0.12654 0.94902 0.25307 0.94902 1.3286h0.0633l-0.12653 0.25307q-0.37961 2.2776-1.0123 4.492-0.56941 2.2144-1.0756 4.4288l-0.1898 0.75922 3.9859-0.75922q0.63268-0.06327 1.0123 0.25307 0.37961 0.31634 0.44288 0.75922 0.0633 0.44288-0.25308 0.88575-0.25307 0.44288-1.2654 0.63268-3.2899 0.63268-4.4288 0.88575-0.69594 3.8593-1.5817 7.5922-0.82248 3.6695-2.5307 7.2758-0.75921 1.0123-1.645 0.50614-0.88576-0.50614-0.63268-1.5817 1.5184-3.2267 2.2776-6.4533 0.82249-3.2899 1.4552-6.7064z"/>
   <path d="m42.986 45.276q0.25307-1.1388 1.2021-1.1388t1.3286 1.0756q0 2.2776-0.88575 4.7451-0.88575 2.4042-1.645 5.188-0.69595 2.7838-1.3919 6.137-0.69595 3.2899-1.5817 6.6431 1.645-2.6573 3.6695-3.8593 1.2021-0.69595 1.898-0.69595 0.75922 0 1.9613 0.37961 3.2899 0.88575 2.5307 5.9472-0.25307 2.0246-1.0756 3.9859-0.82248 1.9613-1.5817 2.9103-1.0123 0.50614-1.7082-0.12654-0.63268-0.69595-0.12654-1.7082 1.4552-1.7082 1.8348-6.0105 0.1898-2.5307-0.82248-2.9103-0.56941-0.25307-1.898 0.63268t-2.3409 2.5307q-1.0123 1.5817-1.898 3.3532t-1.8348 3.4165q-0.88575 1.5817-2.2144 2.6573-0.88575 0.50614-1.5817 0-0.63268-0.44288-0.44288-1.4552 0.44288-1.4552 1.0123-2.7838 0.63268-1.3286 1.2021-3.1634t1.0756-4.1124q0.56941-2.2776 1.2021-4.8084 0.63268-2.594 1.2654-5.441t1.2021-4.9349q0.56941-2.1511 1.0756-3.543 0.56941-1.4552 0.56941-2.9103z"/>
   <path d="m66.015 61.726q0.69595 0.50614 0.56941 1.8348-0.06327 1.2654-1.1388 2.4042-1.0123 1.1388-2.4675 1.8348-2.0246 0.94902-6.137 1.5184-3.4165 3.8593-1.7082 5.3145 1.5817 1.4552 7.0227 0.69595 3.9226-0.50614 7.2126-1.5817 1.1388-0.12654 1.4552 0.88575 0.31634 0.94902-0.75922 1.5184-7.5922 2.1511-12.717 1.7082-3.2267-0.31634-4.3022-1.8348-1.0123-1.5184-0.56941-3.6063t2.0246-4.3022 3.6063-3.9226 4.1757-2.4675q2.1511-0.82248 3.7328 0zm-2.2776 2.2144q-1.1388 0.25307-3.7328 2.3409 2.5307-0.75922 3.7328-2.3409z"/>
   <path d="m70.76 64.7q-0.37961-1.0756 0.12654-1.5184 0.50614-0.50614 0.88575-0.50614 0.44288 0 0.94902 0.37961 1.3286 1.645 1.2654 3.6695-0.06327 2.0246-0.1898 3.2267-0.06327 1.2021-0.12654 1.645 0 0.37961-0.06327 0.69595l-0.1898 2.0878q2.5307-3.6695 6.3901-5.8839t8.6677-4.0492q1.1388-0.12654 1.4552 0.88575 0.31634 0.94902-0.75922 1.5184-6.6431 2.5307-9.4269 4.6186-2.7205 2.0878-4.3022 4.3655-1.5817 2.2144-2.5307 5.3145-0.31634 0.75922-1.2021 1.0123h-0.12654q-1.1388-0.1898-1.3286-1.3286 0.06327-1.5817 0.37961-4.0492 0.31634-2.4675 0.56941-4.8716 0.63268-5.9472-0.44288-7.2126z"/>
   <path d="m101.51 61.726q0.69595 0.50614 0.56941 1.8348-0.0633 1.2654-1.1388 2.4042-1.0123 1.1388-2.4675 1.8348-2.0246 0.94902-6.137 1.5184-3.4165 3.8593-1.7082 5.3145 1.5817 1.4552 7.0227 0.69595 3.9226-0.50614 7.2126-1.5817 1.1388-0.12654 1.4552 0.88575 0.31634 0.94902-0.75922 1.5184-7.5922 2.1511-12.717 1.7082-3.2267-0.31634-4.3022-1.8348-1.0123-1.5184-0.56941-3.6063t2.0246-4.3022 3.6063-3.9226 4.1757-2.4675q2.1511-0.82248 3.7328 0zm-2.2777 2.2144q-1.1388 0.25307-3.7328 2.3409 2.5307-0.75922 3.7328-2.3409z"/>
   <path d="m113.02 66.281-0.0633 2.2776q-0.12654 1.2021-1.2021 1.3286-0.44288 0-0.88575-0.25307-0.37961-0.31634-0.44288-1.0123 0.12654-4.3655 0.63268-8.6044 0.56941-4.3022 0.69595-8.6677 0.25307-1.1388 1.2021-1.1388t1.3286 1.0756q-0.18981 4.8084-1.1388 13.286v-0.69595q-0.12653 2.1511-0.12653 2.4042zm0.63268 7.5922q0.69595 0.82248 0.1898 1.5184-0.50614 0.69595-1.2654 0.56941-0.25307 0.25307-0.56941 0.50614-0.25307 0.25307-0.44288 0.50614-1.0123 0.50614-1.7082-0.1898-0.63268-0.63268-0.12654-1.645 0.12654-0.25307 0.31634-0.44288 0.18981-0.1898 0.25307-0.31634 0.12654-0.12654 0.12654-0.12654 0-0.06327 0.0633-0.12654h0.0633q0-0.06327 0.0633-0.12654v0.06327q0.12654-0.06327 0.50615-0.37961 1.2021-1.0123 2.5307 0.1898zm-0.56941-9.1739v0.1898z"/>
  </g>
  <path d="m23.311 50.001c-2.1107 0.40091-7.6288 12.185-9.8044 20.938-3.5622 14.331-2.4859 28.928 3.1848 43.191 1.6182 4.0701 1.6319 4.2006 0.31331 2.9709-7.5937-7.0818-9.0068-7.9586-10.365-6.4304-0.39868 0.44849-0.23762 0.93598 0.55538 1.6809 6.047 5.6802 14.484 13.393 15.395 14.074 0.96049 0.71794 1.2814 0.72063 2.0704 0.0173 0.57409-0.51173 0.99133-1.6188 1.0832-2.8741 0.08225-1.123 0.77774-5.3557 1.5456-9.4059 0.76788-4.0503 1.237-7.5724 1.0425-7.827-0.19445-0.25459-0.8121-0.14907-1.3725 0.23456-0.78819 0.53948-1.2831 2.1271-2.1855 7.0105-0.6416 3.4722-1.2889 6.326-1.4386 6.3418-0.39345 0.0415-3.2641-6.1336-4.8039-10.334-6.5685-17.917-4.86-39.136 4.5171-56.102 1.0014-1.8118 1.6969-3.3806 1.5454-3.4862-0.15156-0.10554-0.72864-0.10581-1.2826-5.92e-4z"/>
 </g>
</svg>
