<?xml version="1.0" encoding="UTF-8"?>
<!-- Created with Inkscape (http://www.inkscape.org/) -->
<svg width="500" height="500" version="1.1" viewBox="0 0 500 500" xmlns="http://www.w3.org/2000/svg">
 <path d="m69.13 184.81c-8.6436 1.6418-31.241 49.899-40.15 85.744-14.588 58.687-10.18 118.46 13.042 176.87 6.6267 16.668 6.6828 17.202 1.283 12.166-31.097-29.001-36.884-32.591-42.446-26.333-1.6326 1.8366-0.97308 3.833 2.2744 6.8835 24.763 23.261 59.314 54.846 63.044 57.635 3.9333 2.94 5.2475 2.951 8.4785 0.0707 2.351-2.0956 4.0596-6.6292 4.4358-11.77 0.3368-4.5988 3.1849-21.932 6.3294-38.518 3.1446-16.586 5.0657-31.01 4.2692-32.052-0.7963-1.0425-3.3257-0.61044-5.6206 0.96062-3.2277 2.2092-5.2544 8.7107-8.9499 28.709-2.6274 14.219-5.2782 25.906-5.8912 25.97-1.6112 0.17001-13.367-25.118-19.673-42.319-26.899-73.372-19.902-160.27 18.498-229.74 4.1009-7.4195 6.949-13.844 6.3286-14.276-0.62066-0.43219-2.9839-0.43329-5.2524-2e-3zm367.37 66.669-0.25927 9.327q-0.51818 4.9227-4.9228 5.4408-1.8136 0-3.6273-1.0364-1.5545-1.2954-1.8136-4.1455 0.51822-17.877 2.5909-35.236 2.3318-17.618 2.85-35.495 1.0363-4.6635 4.9228-4.6635 3.8864 0 5.4408 4.4047-0.77726 19.691-4.6635 54.408v-2.85q-0.51818 8.809-0.51818 9.8455zm2.5909 31.091q2.85 3.3681 0.77723 6.218-2.0727 2.85-5.1819 2.3318-1.0364 1.0364-2.3318 2.0727-1.0364 1.0364-1.8136 2.0727-4.1455 2.0727-6.9953-0.77725-2.5909-2.5909-0.51818-6.7365 0.51818-1.0364 1.2954-1.8136 0.77732-0.77725 1.0364-1.2955 0.51818-0.51819 0.51818-0.51819 0-0.25908 0.2589-0.51819h0.25928q0-0.25913 0.2589-0.5182v0.25913q0.51822-0.25913 2.0728-1.5546 4.9228-4.1455 10.363 0.77725zm-2.3318-37.568v0.77726zm-47.394-12.176q2.85 2.0727 2.3318 7.5137-0.25928 5.182-4.6635 9.8455-4.1455 4.6635-10.105 7.5137-8.2909 3.8864-25.132 6.218-13.991 15.804-6.9953 21.764 6.4773 5.9592 28.759 2.85 16.064-2.0727 29.537-6.4773 4.6635-0.5182 5.9592 3.6272 1.2955 3.8864-3.109 6.218-31.091 8.809-52.078 6.9953-13.214-1.2955-17.618-7.5137-4.1455-6.218-2.3318-14.768 1.8137-8.5502 8.291-17.618 6.4773-9.0678 14.768-16.064 8.291-6.9957 17.1-10.105 8.809-3.3682 15.286 0zm-9.3275 9.0682q-4.6635 1.0364-15.286 9.5863 10.364-3.1091 15.286-9.5863zm-116.6 3.1106q-1.5546-4.4047 0.51819-6.218 2.0727-2.0727 3.6272-2.0727 1.8137 0 3.8864 1.5546 5.4408 6.7365 5.182 15.027-0.25912 8.291-0.77726 13.214-0.25909 4.9228-0.5182 6.7365 0 1.5546-0.25909 2.85l-0.77725 8.5498q10.364-15.027 26.168-24.095t35.495-16.582q4.6635-0.51819 5.9592 3.6272 1.2954 3.8864-3.1091 6.218-27.204 10.364-38.604 18.914-11.141 8.5498-17.618 17.877-6.4773 9.0682-10.364 21.764-1.2955 3.1091-4.9228 4.1455h-0.5182q-4.6635-0.77725-5.4408-5.4408 0.25913-6.4772 1.5545-16.582 1.2955-10.105 2.3318-19.95 2.5909-24.354-1.8136-29.536zm-19.431-12.179q2.85 2.0727 2.3318 7.5137-0.2591 5.182-4.6635 9.8455-4.1455 4.6635-10.105 7.5137-8.291 3.8864-25.132 6.218-13.991 15.804-6.9953 21.764 6.4772 5.9592 28.759 2.85 16.064-2.0727 29.536-6.4773 4.6635-0.5182 5.9592 3.6272 1.2954 3.8864-3.1091 6.218-31.091 8.809-52.078 6.9953-13.214-1.2955-17.618-7.5137-4.1455-6.218-2.3318-14.768 1.8137-8.5502 8.291-17.618 6.4773-9.0678 14.768-16.064 8.2909-6.9957 17.1-10.105 8.809-3.3682 15.286 0zm-9.327 9.0682q-4.6635 1.0364-15.286 9.5863 10.364-3.1091 15.286-9.5863zm-84.98-76.433q1.0364-4.6635 4.9228-4.6635 3.8864 0 5.4408 4.4047 0 9.327-3.6272 19.432-3.6272 9.8455-6.7365 21.245-2.85 11.4-5.7 25.132-2.85 13.473-6.4773 27.204 6.7365-10.882 15.027-15.804 4.9227-2.85 7.7725-2.85 3.1091 0 8.0318 1.5545 13.473 3.6273 10.364 24.354-1.0363 8.291-4.4047 16.323-3.3681 8.0318-6.4772 11.918-4.1455 2.0727-6.9953-0.5182-2.5909-2.85-0.5182-6.9953 5.9592-6.9953 7.5137-24.614 0.77726-10.364-3.3682-11.918-2.3318-1.0364-7.7726 2.5909-5.4407 3.6273-9.5863 10.364-4.1455 6.4772-7.7726 13.732-3.627 7.2545-7.5137 13.991-3.6273 6.4772-9.0683 10.882-3.6273 2.0727-6.4772 0-2.5909-1.8136-1.8136-5.9592 1.8136-5.9592 4.1455-11.4 2.5909-5.4408 4.9228-12.955 2.3318-7.5137 4.4047-16.841 2.3318-9.3271 4.9228-19.691 2.5909-10.623 5.182-22.282 2.5911-11.659 4.9228-20.209 2.3318-8.809 4.4047-14.509 2.3318-5.9592 2.3318-11.918zm295.6-105.81q-4.6636 1.2955-11.141 3.1091-5.182 1.0364-6.4773-3.3682-1.2952-4.4045 3.1091-6.218 4.9228-1.8136 16.582-4.6635 1.2954-9.327 4.4048-19.691 3.3681-10.364 4.9227-17.877-0.51818-1.0364 0.2589-3.8864 0.77727-2.85 1.2954-4.4047 0.77726-1.5546 2.3318-2.0727 1.5545-0.77725 3.3682-0.5182 3.8864 1.0364 3.8864 5.4408h0.25928l-0.51814 1.0364q-1.5546 9.327-4.1455 18.395-2.3318 9.0682-4.4047 18.136l-0.77726 3.1091 16.323-3.1091q2.5909-0.25913 4.1455 1.0364 1.5545 1.2954 1.8137 3.1091 0.2589 1.8136-1.0364 3.6272-1.0364 1.8136-5.182 2.5909-13.473 2.5909-18.136 3.6273-2.85 15.804-6.4772 31.091-3.3682 15.027-10.364 29.795-3.1091 4.1455-6.7365 2.0727-3.6273-2.0727-2.5909-6.4772 6.218-13.214 9.3271-26.427 3.3682-13.473 5.9592-27.464zm-87.038-3.1082q-1.5546-4.4047 0.51819-6.218 2.0727-2.0727 3.6272-2.0727 1.8137 0 3.8864 1.5545 5.4408 6.7365 5.182 15.027-0.2589 8.291-0.77726 13.214-0.25928 4.9227-0.51819 6.7365 0 1.5545-0.25928 2.85l-0.77723 8.5498q10.364-15.027 26.168-24.095 15.805-9.0682 35.495-16.582 4.6635-0.5182 5.9592 3.6273 1.2954 3.8864-3.1091 6.218-27.204 10.364-38.604 18.914-11.141 8.5498-17.618 17.877-6.4772 9.0682-10.364 21.764-1.2955 3.1091-4.9228 4.1455h-0.51819q-4.6635-0.77725-5.4408-5.4408 0.25913-6.4772 1.5546-16.582 1.2954-10.105 2.3318-19.95 2.5909-24.355-1.8136-29.536zm-74.875 26.684q2.0727-4.1455 4.9228-7.7725 3.1091-3.6273 10.623-10.882 7.7725-7.2545 13.991-11.141 6.4773-3.8864 9.5863-4.1455 3.1091-0.25913 5.182 1.0364 4.4047 2.85 2.5909 8.5498 1.8136-1.2955 3.3682-2.3318 1.5545-1.2955 3.8863-1.5546 2.5909-0.51819 4.4047 1.2955 1.8136 1.5545 1.2954 4.6635-2.5909 9.5863-5.4408 17.359-2.5909 7.7725-1.5546 12.695 1.0364 4.9228 7.5137 6.218 6.4772 1.0364 22.541-2.5909 2.5909-0.25912 4.1455 1.0364 1.5545 1.2955 1.8136 3.1091 0.2589 1.8137-1.0363 3.6272-1.0364 1.8137-4.6635 2.85-9.327 2.3318-18.655 2.3318-9.0682 0.25909-13.991-2.5909-4.6635-2.5909-6.7365-6.9953-3.1091-6.9953 0.77725-21.504-3.8864 3.8864-9.327 9.8455-5.4407 5.9591-7.7726 8.291-2.3318 2.0727-4.4047 3.8864-1.8136 1.5546-6.4772 2.85-4.4047 1.2955-8.809 1.0363-4.1455-0.25912-7.2545-2.85-3.1091-2.5909-2.85-7.2545 0.25912-4.9228 2.3318-9.0682zm35.495-15.804q-2.85-0.25909-4.4047-2.3318-6.4772 5.182-13.473 11.918-6.9953 6.4773-9.327 14.509 10.364 2.85 23.836-15.804 3.6273-5.182 7.5137-9.327-1.5546 0.5182-4.1455 1.0364zm-81.615-7.7713q-4.6635 1.2955-11.141 3.1091-5.182 1.0364-6.4773-3.3682-1.2953-4.4045 3.1091-6.218 4.9228-1.8136 16.582-4.6635 1.2954-9.327 4.4047-19.691 3.3682-10.364 4.9227-17.877-0.51819-1.0364 0.25914-3.8864 0.77726-2.85 1.2954-4.4047 0.77725-1.5546 2.3318-2.0727 1.5545-0.77725 3.3682-0.5182 3.8864 1.0364 3.8864 5.4408h0.25909l-0.51821 1.0364q-1.5546 9.327-4.1455 18.395-2.3318 9.0682-4.4047 18.136l-0.77726 3.1091 16.323-3.1091q2.5909-0.25913 4.1455 1.0364 1.5546 1.2954 1.8136 3.1091 0.25909 1.8136-1.0364 3.6272-1.0364 1.8136-5.182 2.5909-13.473 2.5909-18.136 3.6273-2.85 15.804-6.4772 31.091-3.3682 15.027-10.364 29.795-3.1091 4.1455-6.7365 2.0727-3.6274-2.0728-2.5909-6.4772 6.218-13.214 9.327-26.427 3.3682-13.473 5.9592-27.464zm-49.227-30.832c2.9364 1.2091 4.4047 3.0227 4.4047 5.4408 0 2.7636-1.5546 4.4047-4.6635 4.9227-5.0091 0.34545-9.327 0.60452-12.955 0.77725-3.6272 0-7.1681 0.34545-10.623 1.0364-3.6276 0.67487-7.214 1.7-10.759 3.0754-3.7134 1.4406-7.3815 3.2655-11.004 5.4748 0 0.34545-0.0864 0.60452-0.25914 0.77726 5.0092 3.1091 11.4 5.7864 19.173 8.0318 7.7725 2.2454 13.818 3.9727 18.136 5.182 4.3183 1.0364 7.859 2.0727 10.623 3.1091 2.7638 1.0364 5.268 2.0727 7.5137 3.1091 2.0727 1.0364 4.0591 2.3318 5.9592 3.8864 4.6635 3.6273 6.5637 7.5137 5.7 11.659-2.4182 10.018-11.314 16.496-26.686 19.432-8.9818 1.7273-20.986 1.9864-36.014 0.77726-1.0364-0.17272-2.5045-0.25913-4.4047-0.25913s-3.8864-0.17276-5.9592-0.5182c-5.3544-0.69092-8.5498-1.9864-9.5863-3.8863-1.0364-3.1091-0.94999-5.182 0.25913-6.218 1.3818-1.2091 2.6773-1.8136 3.8863-1.8136 1.2091 0 2.3318 0.34541 3.3682 1.0364 4.3183 0 9.6727 0.34545 16.064 1.0364 6.3908 0.5182 12.782 0.86362 19.173 1.0364 15.546-0.17277 25.218-3.9727 29.018-11.4-2.0727-3.4545-11.573-7.9454-28.5-13.473-19.173-6.0456-31.263-10.796-36.273-14.25-1.9-1.9-2.6773-3.6273-2.3318-5.182 0.34544-1.5545 0.60453-2.85 0.77725-3.8864 0.34546-2.2454 0.86363-3.8863 1.5546-4.9227 7.4273-8.1182 20.9-12.523 40.418-13.214 5.0091-0.17273 9.6727-0.43183 13.991-0.77725z" fill="#4791db" stroke-width="4.0951"/>
</svg>
